<?xml version="1.0" encoding="UTF-8" standalone="no"?>
<!DOCTYPE svg PUBLIC "-//W3C//DTD SVG 1.1//EN"
 "http://www.w3.org/Graphics/SVG/1.1/DTD/svg11.dtd">
<!-- Generated by graphviz version 2.38.0 (20140413.2041)
 -->
<!-- Title: HermesBackend Pages: 1 -->
<svg width="1809pt" height="791pt"
 viewBox="0.00 0.00 1808.52 790.60" xmlns="http://www.w3.org/2000/svg" xmlns:xlink="http://www.w3.org/1999/xlink">
<g id="graph0" class="graph" transform="scale(1 1) rotate(0) translate(28.8 761.8)">
<title>HermesBackend</title>
<polygon fill="white" stroke="none" points="-28.8,28.8 -28.8,-761.8 1779.72,-761.8 1779.72,28.8 -28.8,28.8"/>
<text text-anchor="middle" x="875.458" y="-718.6" font-family="Arial BoldMT" font-size="13.00">Hermes Domain Models</text>
<!-- m_Activity -->
<g id="node1" class="node"><title>m_Activity</title>
<path fill="none" stroke="black" d="M1470,-0.5C1470,-0.5 1590,-0.5 1590,-0.5 1596,-0.5 1602,-6.5 1602,-12.5 1602,-12.5 1602,-82.5 1602,-82.5 1602,-88.5 1596,-94.5 1590,-94.5 1590,-94.5 1470,-94.5 1470,-94.5 1464,-94.5 1458,-88.5 1458,-82.5 1458,-82.5 1458,-12.5 1458,-12.5 1458,-6.5 1464,-0.5 1470,-0.5"/>
<text text-anchor="start" x="1510.58" y="-81.2" font-family="Arial BoldMT" font-size="11.00">Activity</text>
<polyline fill="none" stroke="black" points="1458,-75.5 1602,-75.5 "/>
<text text-anchor="start" x="1465" y="-62" font-family="ArialMT" font-size="10.00">answer_id </text>
<text text-anchor="start" x="1513.36" y="-62" font-family="Arial ItalicMT" font-size="10.00" fill="#999999">integer FK</text>
<text text-anchor="start" x="1465" y="-49" font-family="ArialMT" font-size="10.00">payload </text>
<text text-anchor="start" x="1502.81" y="-49" font-family="Arial ItalicMT" font-size="10.00" fill="#999999">jsonb</text>
<text text-anchor="start" x="1465" y="-36" font-family="ArialMT" font-size="10.00">question_id </text>
<text text-anchor="start" x="1518.93" y="-36" font-family="Arial ItalicMT" font-size="10.00" fill="#999999">integer FK</text>
<text text-anchor="start" x="1465" y="-23" font-family="ArialMT" font-size="10.00">user_id </text>
<text text-anchor="start" x="1500.58" y="-23" font-family="Arial ItalicMT" font-size="10.00" fill="#999999">integer FK</text>
<text text-anchor="start" x="1465" y="-10" font-family="ArialMT" font-size="10.00">verb </text>
<text text-anchor="start" x="1487.23" y="-10" font-family="Arial ItalicMT" font-size="10.00" fill="#999999">text ∗</text>
</g>
<!-- m_Answer -->
<g id="node2" class="node"><title>m_Answer</title>
<path fill="none" stroke="black" d="M476,-138C476,-138 596,-138 596,-138 602,-138 608,-144 608,-150 608,-150 608,-246 608,-246 608,-252 602,-258 596,-258 596,-258 476,-258 476,-258 470,-258 464,-252 464,-246 464,-246 464,-150 464,-150 464,-144 470,-138 476,-138"/>
<text text-anchor="start" x="515.66" y="-244.7" font-family="Arial BoldMT" font-size="11.00">Answer</text>
<polyline fill="none" stroke="black" points="464,-239 608,-239 "/>
<text text-anchor="start" x="471" y="-225.5" font-family="ArialMT" font-size="10.00">confidence </text>
<text text-anchor="start" x="522.147" y="-225.5" font-family="Arial ItalicMT" font-size="10.00" fill="#999999">float</text>
<text text-anchor="start" x="471" y="-212.5" font-family="ArialMT" font-size="10.00">content </text>
<text text-anchor="start" x="506.581" y="-212.5" font-family="Arial ItalicMT" font-size="10.00" fill="#999999">text ∗</text>
<text text-anchor="start" x="471" y="-199.5" font-family="ArialMT" font-size="10.00">deleted_at </text>
<text text-anchor="start" x="520.487" y="-199.5" font-family="Arial ItalicMT" font-size="10.00" fill="#999999">datetime</text>
<text text-anchor="start" x="471" y="-186.5" font-family="ArialMT" font-size="10.00">edited_at </text>
<text text-anchor="start" x="514.926" y="-186.5" font-family="Arial ItalicMT" font-size="10.00" fill="#999999">datetime</text>
<text text-anchor="start" x="471" y="-173.5" font-family="ArialMT" font-size="10.00">hot </text>
<text text-anchor="start" x="487.68" y="-173.5" font-family="Arial ItalicMT" font-size="10.00" fill="#999999">float</text>
<text text-anchor="start" x="471" y="-160.5" font-family="ArialMT" font-size="10.00">question_id </text>
<text text-anchor="start" x="524.931" y="-160.5" font-family="Arial ItalicMT" font-size="10.00" fill="#999999">integer FK</text>
<text text-anchor="start" x="471" y="-147.5" font-family="ArialMT" font-size="10.00">user_id </text>
<text text-anchor="start" x="506.576" y="-147.5" font-family="Arial ItalicMT" font-size="10.00" fill="#999999">integer FK</text>
</g>
<!-- m_Answer&#45;&gt;m_Activity -->
<g id="edge43" class="edge"><title>m_Answer&#45;&gt;m_Activity</title>
<path fill="none" stroke="black" d="M608.287,-186.201C788.943,-159.211 1259.18,-88.9589 1448.89,-60.6173"/>
<polygon fill="black" stroke="black" points="1449.55,-63.7042 1457.98,-59.2589 1448.62,-57.4734 1449.55,-63.7042"/>
</g>
<!-- m_AnswersDataReport -->
<g id="node3" class="node"><title>m_AnswersDataReport</title>
<path fill="none" stroke="black" d="M851,-20C851,-20 971,-20 971,-20 977,-20 983,-26 983,-32 983,-32 983,-63 983,-63 983,-69 977,-75 971,-75 971,-75 851,-75 851,-75 845,-75 839,-69 839,-63 839,-63 839,-32 839,-32 839,-26 845,-20 851,-20"/>
<text text-anchor="start" x="859.785" y="-61.7" font-family="Arial BoldMT" font-size="11.00">AnswersDataReport</text>
<polyline fill="none" stroke="black" points="839,-56 983,-56 "/>
<text text-anchor="start" x="846" y="-43" font-family="ArialMT" font-size="10.00">answer_id </text>
<text text-anchor="start" x="894.359" y="-43" font-family="Arial ItalicMT" font-size="10.00" fill="#999999">integer FK</text>
<text text-anchor="start" x="846" y="-30" font-family="ArialMT" font-size="10.00">data_report_id </text>
<text text-anchor="start" x="913.271" y="-30" font-family="Arial ItalicMT" font-size="10.00" fill="#999999">integer FK</text>
</g>
<!-- m_Answer&#45;&gt;m_AnswersDataReport -->
<g id="edge31" class="edge"><title>m_Answer&#45;&gt;m_AnswersDataReport</title>
<path fill="none" stroke="black" d="M608.304,-168.368C673.484,-142.556 768.988,-104.737 835.219,-78.5093"/>
<polygon fill="black" stroke="black" points="836.75,-81.2913 843.958,-75.0488 834.43,-75.4338 836.75,-81.2913"/>
</g>
<!-- m_AnswersDataSet -->
<g id="node4" class="node"><title>m_AnswersDataSet</title>
<path fill="none" stroke="black" d="M157,-20C157,-20 277,-20 277,-20 283,-20 289,-26 289,-32 289,-32 289,-63 289,-63 289,-69 283,-75 277,-75 277,-75 157,-75 157,-75 151,-75 145,-69 145,-63 145,-63 145,-32 145,-32 145,-26 151,-20 157,-20"/>
<text text-anchor="start" x="174.037" y="-61.7" font-family="Arial BoldMT" font-size="11.00">AnswersDataSet</text>
<polyline fill="none" stroke="black" points="145,-56 289,-56 "/>
<text text-anchor="start" x="152" y="-43" font-family="ArialMT" font-size="10.00">answer_id </text>
<text text-anchor="start" x="200.359" y="-43" font-family="Arial ItalicMT" font-size="10.00" fill="#999999">integer FK</text>
<text text-anchor="start" x="152" y="-30" font-family="ArialMT" font-size="10.00">data_set_id </text>
<text text-anchor="start" x="206.487" y="-30" font-family="Arial ItalicMT" font-size="10.00" fill="#999999">integer FK</text>
</g>
<!-- m_Answer&#45;&gt;m_AnswersDataSet -->
<g id="edge29" class="edge"><title>m_Answer&#45;&gt;m_AnswersDataSet</title>
<path fill="none" stroke="black" d="M463.614,-163.303C409.086,-137.919 334.963,-103.414 282.253,-78.8764"/>
<polygon fill="black" stroke="black" points="283.472,-75.9693 273.983,-75.0267 280.813,-81.6808 283.472,-75.9693"/>
</g>
<!-- m_Comment -->
<g id="node6" class="node"><title>m_Comment</title>
<path fill="none" stroke="black" d="M418,-0.5C418,-0.5 538,-0.5 538,-0.5 544,-0.5 550,-6.5 550,-12.5 550,-12.5 550,-82.5 550,-82.5 550,-88.5 544,-94.5 538,-94.5 538,-94.5 418,-94.5 418,-94.5 412,-94.5 406,-88.5 406,-82.5 406,-82.5 406,-12.5 406,-12.5 406,-6.5 412,-0.5 418,-0.5"/>
<text text-anchor="start" x="452.16" y="-81.2" font-family="Arial BoldMT" font-size="11.00">Comment</text>
<polyline fill="none" stroke="black" points="406,-75.5 550,-75.5 "/>
<text text-anchor="start" x="413" y="-62" font-family="ArialMT" font-size="10.00">answer_id </text>
<text text-anchor="start" x="461.359" y="-62" font-family="Arial ItalicMT" font-size="10.00" fill="#999999">integer FK</text>
<text text-anchor="start" x="413" y="-49" font-family="ArialMT" font-size="10.00">content </text>
<text text-anchor="start" x="448.581" y="-49" font-family="Arial ItalicMT" font-size="10.00" fill="#999999">text ∗</text>
<text text-anchor="start" x="413" y="-36" font-family="ArialMT" font-size="10.00">deleted_at </text>
<text text-anchor="start" x="462.487" y="-36" font-family="Arial ItalicMT" font-size="10.00" fill="#999999">datetime</text>
<text text-anchor="start" x="413" y="-23" font-family="ArialMT" font-size="10.00">reply_to_id </text>
<text text-anchor="start" x="464.699" y="-23" font-family="Arial ItalicMT" font-size="10.00" fill="#999999">integer FK</text>
<text text-anchor="start" x="413" y="-10" font-family="ArialMT" font-size="10.00">user_id </text>
<text text-anchor="start" x="448.576" y="-10" font-family="Arial ItalicMT" font-size="10.00" fill="#999999">integer FK</text>
</g>
<!-- m_Answer&#45;&gt;m_Comment -->
<g id="edge33" class="edge"><title>m_Answer&#45;&gt;m_Comment</title>
<path fill="none" stroke="black" d="M512.91,-137.882C508.429,-126.409 503.752,-114.433 499.331,-103.113"/>
<polygon fill="black" stroke="black" points="502.215,-101.841 496.007,-94.6041 496.347,-104.133 502.215,-101.841"/>
</g>
<!-- m_DataReport -->
<g id="node8" class="node"><title>m_DataReport</title>
<path fill="none" stroke="black" d="M1591,-314.5C1591,-314.5 1711,-314.5 1711,-314.5 1717,-314.5 1723,-320.5 1723,-326.5 1723,-326.5 1723,-383.5 1723,-383.5 1723,-389.5 1717,-395.5 1711,-395.5 1711,-395.5 1591,-395.5 1591,-395.5 1585,-395.5 1579,-389.5 1579,-383.5 1579,-383.5 1579,-326.5 1579,-326.5 1579,-320.5 1585,-314.5 1591,-314.5"/>
<text text-anchor="start" x="1620.87" y="-382.2" font-family="Arial BoldMT" font-size="11.00">DataReport</text>
<polyline fill="none" stroke="black" points="1579,-376.5 1723,-376.5 "/>
<text text-anchor="start" x="1586" y="-363.5" font-family="ArialMT" font-size="10.00">deleted_at </text>
<text text-anchor="start" x="1635.49" y="-363.5" font-family="Arial ItalicMT" font-size="10.00" fill="#999999">datetime</text>
<text text-anchor="start" x="1586" y="-350.5" font-family="ArialMT" font-size="10.00">title </text>
<text text-anchor="start" x="1604.34" y="-350.5" font-family="Arial ItalicMT" font-size="10.00" fill="#999999">text ∗</text>
<text text-anchor="start" x="1586" y="-337.5" font-family="ArialMT" font-size="10.00">url </text>
<text text-anchor="start" x="1599.89" y="-337.5" font-family="Arial ItalicMT" font-size="10.00" fill="#999999">text ∗</text>
<text text-anchor="start" x="1586" y="-324.5" font-family="ArialMT" font-size="10.00">user_id </text>
<text text-anchor="start" x="1621.58" y="-324.5" font-family="Arial ItalicMT" font-size="10.00" fill="#999999">integer FK</text>
</g>
<!-- m_Answer&#45;&gt;m_DataReport -->
<g id="edge32" class="edge"><title>m_Answer&#45;&gt;m_DataReport</title>
<path fill="none" stroke="black" stroke-dasharray="1,5" d="M608.373,-208.969C711.873,-222.97 908.213,-248.58 1076,-265 1292.89,-286.225 1357.66,-233.921 1565,-301 1572.32,-303.367 1579.65,-306.478 1586.78,-310.008"/>
<polygon fill="black" stroke="black" points="1585.6,-312.949 1595.04,-314.326 1588.52,-307.365 1585.6,-312.949"/>
</g>
<!-- m_DataSet -->
<g id="node9" class="node"><title>m_DataSet</title>
<path fill="none" stroke="black" d="M244,-308C244,-308 364,-308 364,-308 370,-308 376,-314 376,-320 376,-320 376,-390 376,-390 376,-396 370,-402 364,-402 364,-402 244,-402 244,-402 238,-402 232,-396 232,-390 232,-390 232,-320 232,-320 232,-314 238,-308 244,-308"/>
<text text-anchor="start" x="282.127" y="-388.7" font-family="Arial BoldMT" font-size="11.00">DataSet</text>
<polyline fill="none" stroke="black" points="232,-383 376,-383 "/>
<text text-anchor="start" x="239" y="-369.5" font-family="ArialMT" font-size="10.00">competition_id </text>
<text text-anchor="start" x="306.261" y="-369.5" font-family="Arial ItalicMT" font-size="10.00" fill="#999999">integer FK</text>
<text text-anchor="start" x="239" y="-356.5" font-family="ArialMT" font-size="10.00">deleted_at </text>
<text text-anchor="start" x="288.487" y="-356.5" font-family="Arial ItalicMT" font-size="10.00" fill="#999999">datetime</text>
<text text-anchor="start" x="239" y="-343.5" font-family="ArialMT" font-size="10.00">title </text>
<text text-anchor="start" x="257.34" y="-343.5" font-family="Arial ItalicMT" font-size="10.00" fill="#999999">text ∗</text>
<text text-anchor="start" x="239" y="-330.5" font-family="ArialMT" font-size="10.00">url </text>
<text text-anchor="start" x="252.892" y="-330.5" font-family="Arial ItalicMT" font-size="10.00" fill="#999999">text ∗</text>
<text text-anchor="start" x="239" y="-317.5" font-family="ArialMT" font-size="10.00">user_id </text>
<text text-anchor="start" x="274.576" y="-317.5" font-family="Arial ItalicMT" font-size="10.00" fill="#999999">integer FK</text>
</g>
<!-- m_Answer&#45;&gt;m_DataSet -->
<g id="edge30" class="edge"><title>m_Answer&#45;&gt;m_DataSet</title>
<path fill="none" stroke="black" stroke-dasharray="1,5" d="M463.66,-247.331C437.331,-264.921 407.489,-284.859 380.788,-302.697"/>
<polygon fill="black" stroke="black" points="378.713,-300.296 372.98,-307.915 382.213,-305.534 378.713,-300.296"/>
</g>
<!-- m_Business -->
<g id="node5" class="node"><title>m_Business</title>
<path fill="none" stroke="black" d="M819.5,-628.5C819.5,-628.5 944.5,-628.5 944.5,-628.5 950.5,-628.5 956.5,-634.5 956.5,-640.5 956.5,-640.5 956.5,-684.5 956.5,-684.5 956.5,-690.5 950.5,-696.5 944.5,-696.5 944.5,-696.5 819.5,-696.5 819.5,-696.5 813.5,-696.5 807.5,-690.5 807.5,-684.5 807.5,-684.5 807.5,-640.5 807.5,-640.5 807.5,-634.5 813.5,-628.5 819.5,-628.5"/>
<text text-anchor="start" x="857.683" y="-683.2" font-family="Arial BoldMT" font-size="11.00">Business</text>
<polyline fill="none" stroke="black" points="807.5,-677.5 956.5,-677.5 "/>
<text text-anchor="start" x="815" y="-664" font-family="ArialMT" font-size="10.00">deleted_at </text>
<text text-anchor="start" x="864.487" y="-664" font-family="Arial ItalicMT" font-size="10.00" fill="#999999">datetime</text>
<text text-anchor="start" x="815" y="-651" font-family="ArialMT" font-size="10.00">name </text>
<text text-anchor="start" x="842.793" y="-651" font-family="Arial ItalicMT" font-size="10.00" fill="#999999">text ∗</text>
<text text-anchor="start" x="814.68" y="-638" font-family="ArialMT" font-size="10.00">parent_business_id </text>
<text text-anchor="start" x="904.187" y="-638" font-family="Arial ItalicMT" font-size="10.00" fill="#999999">integer FK</text>
</g>
<!-- m_Business&#45;&gt;m_Business -->
<g id="edge44" class="edge"><title>m_Business&#45;&gt;m_Business</title>
<path fill="none" stroke="black" d="M956.895,-688.773C973.446,-686.305 985.5,-677.547 985.5,-662.5 985.5,-650.274 977.542,-642.201 965.681,-638.279"/>
<polygon fill="black" stroke="black" points="966.376,-635.206 956.895,-636.227 964.943,-641.341 966.376,-635.206"/>
</g>
<!-- m_User -->
<g id="node22" class="node"><title>m_User</title>
<path fill="none" stroke="black" d="M822,-445.5C822,-445.5 942,-445.5 942,-445.5 948,-445.5 954,-451.5 954,-457.5 954,-457.5 954,-579.5 954,-579.5 954,-585.5 948,-591.5 942,-591.5 942,-591.5 822,-591.5 822,-591.5 816,-591.5 810,-585.5 810,-579.5 810,-579.5 810,-457.5 810,-457.5 810,-451.5 816,-445.5 822,-445.5"/>
<text text-anchor="start" x="868.388" y="-578.2" font-family="Arial BoldMT" font-size="11.00">User</text>
<polyline fill="none" stroke="black" points="810,-572.5 954,-572.5 "/>
<text text-anchor="start" x="817" y="-559" font-family="ArialMT" font-size="10.00">avatar </text>
<text text-anchor="start" x="847.571" y="-559" font-family="Arial ItalicMT" font-size="10.00" fill="#999999">string</text>
<text text-anchor="start" x="817" y="-546" font-family="ArialMT" font-size="10.00">business_id </text>
<text text-anchor="start" x="872.591" y="-546" font-family="Arial ItalicMT" font-size="10.00" fill="#999999">integer FK</text>
<text text-anchor="start" x="817" y="-533" font-family="ArialMT" font-size="10.00">confidence </text>
<text text-anchor="start" x="868.147" y="-533" font-family="Arial ItalicMT" font-size="10.00" fill="#999999">float</text>
<text text-anchor="start" x="817" y="-520" font-family="ArialMT" font-size="10.00">deleted_at </text>
<text text-anchor="start" x="866.487" y="-520" font-family="Arial ItalicMT" font-size="10.00" fill="#999999">datetime</text>
<text text-anchor="start" x="817" y="-507" font-family="ArialMT" font-size="10.00">description </text>
<text text-anchor="start" x="868.138" y="-507" font-family="Arial ItalicMT" font-size="10.00" fill="#999999">text</text>
<text text-anchor="start" x="817" y="-494" font-family="ArialMT" font-size="10.00">display_name </text>
<text text-anchor="start" x="881.482" y="-494" font-family="Arial ItalicMT" font-size="10.00" fill="#999999">text ∗</text>
<text text-anchor="start" x="817" y="-481" font-family="ArialMT" font-size="10.00">email </text>
<text text-anchor="start" x="843.675" y="-481" font-family="Arial ItalicMT" font-size="10.00" fill="#999999">text ∗ U</text>
<text text-anchor="start" x="817" y="-468" font-family="ArialMT" font-size="10.00">gender </text>
<text text-anchor="start" x="850.916" y="-468" font-family="Arial ItalicMT" font-size="10.00" fill="#999999">text</text>
<text text-anchor="start" x="817" y="-455" font-family="ArialMT" font-size="10.00">password_digest </text>
<text text-anchor="start" x="894.822" y="-455" font-family="Arial ItalicMT" font-size="10.00" fill="#999999">text</text>
</g>
<!-- m_Business&#45;&gt;m_User -->
<g id="edge1" class="edge"><title>m_Business&#45;&gt;m_User</title>
<path fill="none" stroke="black" d="M882,-628.207C882,-619.821 882,-610.446 882,-600.812"/>
<polygon fill="black" stroke="black" points="885.15,-600.52 882,-591.52 878.85,-600.52 885.15,-600.52"/>
</g>
<!-- m_Competition -->
<g id="node7" class="node"><title>m_Competition</title>
<path fill="none" stroke="black" d="M71,-452C71,-452 191,-452 191,-452 197,-452 203,-458 203,-464 203,-464 203,-573 203,-573 203,-579 197,-585 191,-585 191,-585 71,-585 71,-585 65,-585 59,-579 59,-573 59,-573 59,-464 59,-464 59,-458 65,-452 71,-452"/>
<text text-anchor="start" x="99.6523" y="-571.7" font-family="Arial BoldMT" font-size="11.00">Competition</text>
<polyline fill="none" stroke="black" points="59,-566 203,-566 "/>
<text text-anchor="start" x="66" y="-553" font-family="ArialMT" font-size="10.00">award </text>
<text text-anchor="start" x="96.0146" y="-553" font-family="Arial ItalicMT" font-size="10.00" fill="#999999">decimal (11,2)</text>
<text text-anchor="start" x="66" y="-540" font-family="ArialMT" font-size="10.00">competition_type </text>
<text text-anchor="start" x="144.379" y="-540" font-family="Arial ItalicMT" font-size="10.00" fill="#999999">text ∗</text>
<text text-anchor="start" x="66" y="-527" font-family="ArialMT" font-size="10.00">deleted_at </text>
<text text-anchor="start" x="115.487" y="-527" font-family="Arial ItalicMT" font-size="10.00" fill="#999999">datetime</text>
<text text-anchor="start" x="66" y="-514" font-family="ArialMT" font-size="10.00">description </text>
<text text-anchor="start" x="117.138" y="-514" font-family="Arial ItalicMT" font-size="10.00" fill="#999999">text</text>
<text text-anchor="start" x="66" y="-501" font-family="ArialMT" font-size="10.00">expire_at </text>
<text text-anchor="start" x="109.916" y="-501" font-family="Arial ItalicMT" font-size="10.00" fill="#999999">datetime ∗</text>
<text text-anchor="start" x="66" y="-488" font-family="ArialMT" font-size="10.00">logo_url </text>
<text text-anchor="start" x="104.359" y="-488" font-family="Arial ItalicMT" font-size="10.00" fill="#999999">text</text>
<text text-anchor="start" x="66" y="-475" font-family="ArialMT" font-size="10.00">start_at </text>
<text text-anchor="start" x="102.128" y="-475" font-family="Arial ItalicMT" font-size="10.00" fill="#999999">datetime ∗</text>
<text text-anchor="start" x="66" y="-462" font-family="ArialMT" font-size="10.00">title </text>
<text text-anchor="start" x="84.3398" y="-462" font-family="Arial ItalicMT" font-size="10.00" fill="#999999">text ∗</text>
</g>
<!-- m_Competition&#45;&gt;m_DataSet -->
<g id="edge35" class="edge"><title>m_Competition&#45;&gt;m_DataSet</title>
<path fill="none" stroke="black" d="M201.366,-451.812C219.233,-435.132 238.053,-417.563 254.628,-402.09"/>
</g>
<!-- m_Solution -->
<g id="node20" class="node"><title>m_Solution</title>
<path fill="none" stroke="black" d="M71,-314.5C71,-314.5 191,-314.5 191,-314.5 197,-314.5 203,-320.5 203,-326.5 203,-326.5 203,-383.5 203,-383.5 203,-389.5 197,-395.5 191,-395.5 191,-395.5 71,-395.5 71,-395.5 65,-395.5 59,-389.5 59,-383.5 59,-383.5 59,-326.5 59,-326.5 59,-320.5 65,-314.5 71,-314.5"/>
<text text-anchor="start" x="109.124" y="-382.2" font-family="Arial BoldMT" font-size="11.00">Solution</text>
<polyline fill="none" stroke="black" points="59,-376.5 203,-376.5 "/>
<text text-anchor="start" x="66" y="-363.5" font-family="ArialMT" font-size="10.00">competition_id </text>
<text text-anchor="start" x="133.261" y="-363.5" font-family="Arial ItalicMT" font-size="10.00" fill="#999999">integer FK</text>
<text text-anchor="start" x="66" y="-350.5" font-family="ArialMT" font-size="10.00">deleted_at </text>
<text text-anchor="start" x="115.487" y="-350.5" font-family="Arial ItalicMT" font-size="10.00" fill="#999999">datetime</text>
<text text-anchor="start" x="66" y="-337.5" font-family="ArialMT" font-size="10.00">description </text>
<text text-anchor="start" x="117.138" y="-337.5" font-family="Arial ItalicMT" font-size="10.00" fill="#999999">text</text>
<text text-anchor="start" x="66" y="-324.5" font-family="ArialMT" font-size="10.00">user_id </text>
<text text-anchor="start" x="101.576" y="-324.5" font-family="Arial ItalicMT" font-size="10.00" fill="#999999">integer FK</text>
</g>
<!-- m_Competition&#45;&gt;m_Solution -->
<g id="edge34" class="edge"><title>m_Competition&#45;&gt;m_Solution</title>
<path fill="none" stroke="black" d="M131,-451.812C131,-436.195 131,-419.799 131,-405.073"/>
<polygon fill="black" stroke="black" points="134.15,-404.662 131,-395.662 127.85,-404.662 134.15,-404.662"/>
</g>
<!-- m_DataReport&#45;&gt;m_AnswersDataReport -->
<g id="edge41" class="edge"><title>m_DataReport&#45;&gt;m_AnswersDataReport</title>
<path fill="none" stroke="black" d="M1669.01,-314.208C1688.34,-264.761 1710.69,-180.834 1666,-131 1654.81,-118.52 1184.8,-73.7925 992.117,-55.9379"/>
<polygon fill="black" stroke="black" points="992.406,-52.8013 983.154,-55.1082 991.825,-59.0744 992.406,-52.8013"/>
</g>
<!-- m_QuestionsDataReport -->
<g id="node16" class="node"><title>m_QuestionsDataReport</title>
<path fill="none" stroke="black" d="M1519,-170.5C1519,-170.5 1639,-170.5 1639,-170.5 1645,-170.5 1651,-176.5 1651,-182.5 1651,-182.5 1651,-213.5 1651,-213.5 1651,-219.5 1645,-225.5 1639,-225.5 1639,-225.5 1519,-225.5 1519,-225.5 1513,-225.5 1507,-219.5 1507,-213.5 1507,-213.5 1507,-182.5 1507,-182.5 1507,-176.5 1513,-170.5 1519,-170.5"/>
<text text-anchor="start" x="1524.11" y="-212.2" font-family="Arial BoldMT" font-size="11.00">QuestionsDataReport</text>
<polyline fill="none" stroke="black" points="1507,-206.5 1651,-206.5 "/>
<text text-anchor="start" x="1514" y="-193.5" font-family="ArialMT" font-size="10.00">data_report_id </text>
<text text-anchor="start" x="1581.27" y="-193.5" font-family="Arial ItalicMT" font-size="10.00" fill="#999999">integer FK</text>
<text text-anchor="start" x="1514" y="-180.5" font-family="ArialMT" font-size="10.00">question_id </text>
<text text-anchor="start" x="1567.93" y="-180.5" font-family="Arial ItalicMT" font-size="10.00" fill="#999999">integer FK</text>
</g>
<!-- m_DataReport&#45;&gt;m_QuestionsDataReport -->
<g id="edge40" class="edge"><title>m_DataReport&#45;&gt;m_QuestionsDataReport</title>
<path fill="none" stroke="black" d="M1632.65,-314.486C1621.14,-289.722 1606.45,-258.084 1595.34,-234.187"/>
<polygon fill="black" stroke="black" points="1598.08,-232.595 1591.43,-225.76 1592.37,-235.249 1598.08,-232.595"/>
</g>
<!-- m_DataSet&#45;&gt;m_AnswersDataSet -->
<g id="edge37" class="edge"><title>m_DataSet&#45;&gt;m_AnswersDataSet</title>
<path fill="none" stroke="black" d="M245.981,-307.865C234.194,-295.334 223.443,-280.807 217,-265 192.631,-205.208 200.966,-128.176 209.088,-83.9637"/>
<polygon fill="black" stroke="black" points="212.196,-84.4787 210.806,-75.0453 206.01,-83.2869 212.196,-84.4787"/>
</g>
<!-- m_FileUploaded -->
<g id="node12" class="node"><title>m_FileUploaded</title>
<path fill="none" stroke="black" d="M12,-131.5C12,-131.5 132,-131.5 132,-131.5 138,-131.5 144,-137.5 144,-143.5 144,-143.5 144,-252.5 144,-252.5 144,-258.5 138,-264.5 132,-264.5 132,-264.5 12,-264.5 12,-264.5 6,-264.5 0,-258.5 0,-252.5 0,-252.5 0,-143.5 0,-143.5 0,-137.5 6,-131.5 12,-131.5"/>
<text text-anchor="start" x="37.5908" y="-251.2" font-family="Arial BoldMT" font-size="11.00">FileUploaded</text>
<polyline fill="none" stroke="black" points="0,-245.5 144,-245.5 "/>
<text text-anchor="start" x="7" y="-232.5" font-family="ArialMT" font-size="10.00">deleted_at </text>
<text text-anchor="start" x="56.4873" y="-232.5" font-family="Arial ItalicMT" font-size="10.00" fill="#999999">datetime</text>
<text text-anchor="start" x="7" y="-219.5" font-family="ArialMT" font-size="10.00">description </text>
<text text-anchor="start" x="58.1377" y="-219.5" font-family="Arial ItalicMT" font-size="10.00" fill="#999999">text</text>
<text text-anchor="start" x="7" y="-206.5" font-family="ArialMT" font-size="10.00">format </text>
<text text-anchor="start" x="38.1182" y="-206.5" font-family="Arial ItalicMT" font-size="10.00" fill="#999999">text</text>
<text text-anchor="start" x="7" y="-193.5" font-family="ArialMT" font-size="10.00">name </text>
<text text-anchor="start" x="34.793" y="-193.5" font-family="Arial ItalicMT" font-size="10.00" fill="#999999">text</text>
<text text-anchor="start" x="7" y="-180.5" font-family="ArialMT" font-size="10.00">size </text>
<text text-anchor="start" x="27.5615" y="-180.5" font-family="Arial ItalicMT" font-size="10.00" fill="#999999">integer</text>
<text text-anchor="start" x="7" y="-167.5" font-family="ArialMT" font-size="10.00">uploadable_id </text>
<text text-anchor="start" x="72.0586" y="-167.5" font-family="Arial ItalicMT" font-size="10.00" fill="#999999">integer FK</text>
<text text-anchor="start" x="7" y="-154.5" font-family="ArialMT" font-size="10.00">uploadable_type </text>
<text text-anchor="start" x="83.1768" y="-154.5" font-family="Arial ItalicMT" font-size="10.00" fill="#999999">string</text>
<text text-anchor="start" x="7" y="-141.5" font-family="ArialMT" font-size="10.00">url </text>
<text text-anchor="start" x="20.8916" y="-141.5" font-family="Arial ItalicMT" font-size="10.00" fill="#999999">text</text>
</g>
<!-- m_DataSet&#45;&gt;m_FileUploaded -->
<g id="edge38" class="edge"><title>m_DataSet&#45;&gt;m_FileUploaded</title>
<path fill="none" stroke="black" d="M231.669,-308.11C210.4,-294.412 187.166,-279.248 166,-265 161.332,-261.858 156.551,-258.606 151.739,-255.308"/>
<polygon fill="black" stroke="black" points="153.362,-252.602 144.162,-250.095 149.791,-257.792 153.362,-252.602"/>
</g>
<!-- m_QuestionsDataSet -->
<g id="node17" class="node"><title>m_QuestionsDataSet</title>
<path fill="none" stroke="black" d="M244,-170.5C244,-170.5 364,-170.5 364,-170.5 370,-170.5 376,-176.5 376,-182.5 376,-182.5 376,-213.5 376,-213.5 376,-219.5 370,-225.5 364,-225.5 364,-225.5 244,-225.5 244,-225.5 238,-225.5 232,-219.5 232,-213.5 232,-213.5 232,-182.5 232,-182.5 232,-176.5 238,-170.5 244,-170.5"/>
<text text-anchor="start" x="257.364" y="-212.2" font-family="Arial BoldMT" font-size="11.00">QuestionsDataSet</text>
<polyline fill="none" stroke="black" points="232,-206.5 376,-206.5 "/>
<text text-anchor="start" x="239" y="-193.5" font-family="ArialMT" font-size="10.00">data_set_id </text>
<text text-anchor="start" x="293.487" y="-193.5" font-family="Arial ItalicMT" font-size="10.00" fill="#999999">integer FK</text>
<text text-anchor="start" x="239" y="-180.5" font-family="ArialMT" font-size="10.00">question_id </text>
<text text-anchor="start" x="292.931" y="-180.5" font-family="Arial ItalicMT" font-size="10.00" fill="#999999">integer FK</text>
</g>
<!-- m_DataSet&#45;&gt;m_QuestionsDataSet -->
<g id="edge36" class="edge"><title>m_DataSet&#45;&gt;m_QuestionsDataSet</title>
<path fill="none" stroke="black" d="M304,-307.915C304,-284.594 304,-256.706 304,-234.988"/>
<polygon fill="black" stroke="black" points="307.15,-234.786 304,-225.786 300.85,-234.786 307.15,-234.786"/>
</g>
<!-- m_Education -->
<g id="node10" class="node"><title>m_Education</title>
<path fill="none" stroke="black" d="M476,-314.5C476,-314.5 596,-314.5 596,-314.5 602,-314.5 608,-320.5 608,-326.5 608,-326.5 608,-383.5 608,-383.5 608,-389.5 602,-395.5 596,-395.5 596,-395.5 476,-395.5 476,-395.5 470,-395.5 464,-389.5 464,-383.5 464,-383.5 464,-326.5 464,-326.5 464,-320.5 470,-314.5 476,-314.5"/>
<text text-anchor="start" x="509.537" y="-382.2" font-family="Arial BoldMT" font-size="11.00">Education</text>
<polyline fill="none" stroke="black" points="464,-376.5 608,-376.5 "/>
<text text-anchor="start" x="471" y="-363.5" font-family="ArialMT" font-size="10.00">deleted_at </text>
<text text-anchor="start" x="520.487" y="-363.5" font-family="Arial ItalicMT" font-size="10.00" fill="#999999">datetime</text>
<text text-anchor="start" x="471" y="-350.5" font-family="ArialMT" font-size="10.00">direction </text>
<text text-anchor="start" x="511.576" y="-350.5" font-family="Arial ItalicMT" font-size="10.00" fill="#999999">text</text>
<text text-anchor="start" x="471" y="-337.5" font-family="ArialMT" font-size="10.00">organization </text>
<text text-anchor="start" x="528.261" y="-337.5" font-family="Arial ItalicMT" font-size="10.00" fill="#999999">text ∗</text>
<text text-anchor="start" x="471" y="-324.5" font-family="ArialMT" font-size="10.00">user_id </text>
<text text-anchor="start" x="506.576" y="-324.5" font-family="Arial ItalicMT" font-size="10.00" fill="#999999">integer FK</text>
</g>
<!-- m_Employment -->
<g id="node11" class="node"><title>m_Employment</title>
<path fill="none" stroke="black" d="M649,-314.5C649,-314.5 769,-314.5 769,-314.5 775,-314.5 781,-320.5 781,-326.5 781,-326.5 781,-383.5 781,-383.5 781,-389.5 775,-395.5 769,-395.5 769,-395.5 649,-395.5 649,-395.5 643,-395.5 637,-389.5 637,-383.5 637,-383.5 637,-326.5 637,-326.5 637,-320.5 643,-314.5 649,-314.5"/>
<text text-anchor="start" x="676.433" y="-382.2" font-family="Arial BoldMT" font-size="11.00">Employment</text>
<polyline fill="none" stroke="black" points="637,-376.5 781,-376.5 "/>
<text text-anchor="start" x="644" y="-363.5" font-family="ArialMT" font-size="10.00">deleted_at </text>
<text text-anchor="start" x="693.487" y="-363.5" font-family="Arial ItalicMT" font-size="10.00" fill="#999999">datetime</text>
<text text-anchor="start" x="644" y="-350.5" font-family="ArialMT" font-size="10.00">employment </text>
<text text-anchor="start" x="701.246" y="-350.5" font-family="Arial ItalicMT" font-size="10.00" fill="#999999">text ∗</text>
<text text-anchor="start" x="644" y="-337.5" font-family="ArialMT" font-size="10.00">position </text>
<text text-anchor="start" x="681.246" y="-337.5" font-family="Arial ItalicMT" font-size="10.00" fill="#999999">text</text>
<text text-anchor="start" x="644" y="-324.5" font-family="ArialMT" font-size="10.00">user_id </text>
<text text-anchor="start" x="679.576" y="-324.5" font-family="Arial ItalicMT" font-size="10.00" fill="#999999">integer FK</text>
</g>
<!-- m_Followment -->
<g id="node13" class="node"><title>m_Followment</title>
<path fill="none" stroke="black" d="M822,-327.5C822,-327.5 942,-327.5 942,-327.5 948,-327.5 954,-333.5 954,-339.5 954,-339.5 954,-370.5 954,-370.5 954,-376.5 948,-382.5 942,-382.5 942,-382.5 822,-382.5 822,-382.5 816,-382.5 810,-376.5 810,-370.5 810,-370.5 810,-339.5 810,-339.5 810,-333.5 816,-327.5 822,-327.5"/>
<text text-anchor="start" x="851.88" y="-369.2" font-family="Arial BoldMT" font-size="11.00">Followment</text>
<polyline fill="none" stroke="black" points="810,-363.5 954,-363.5 "/>
<text text-anchor="start" x="817" y="-350.5" font-family="ArialMT" font-size="10.00">followee_id </text>
<text text-anchor="start" x="869.812" y="-350.5" font-family="Arial ItalicMT" font-size="10.00" fill="#999999">integer FK</text>
<text text-anchor="start" x="817" y="-337.5" font-family="ArialMT" font-size="10.00">follower_id </text>
<text text-anchor="start" x="867.581" y="-337.5" font-family="Arial ItalicMT" font-size="10.00" fill="#999999">integer FK</text>
</g>
<!-- m_Location -->
<g id="node14" class="node"><title>m_Location</title>
<path fill="none" stroke="black" d="M995,-321C995,-321 1115,-321 1115,-321 1121,-321 1127,-327 1127,-333 1127,-333 1127,-377 1127,-377 1127,-383 1121,-389 1115,-389 1115,-389 995,-389 995,-389 989,-389 983,-383 983,-377 983,-377 983,-333 983,-333 983,-327 989,-321 995,-321"/>
<text text-anchor="start" x="1032.21" y="-375.7" font-family="Arial BoldMT" font-size="11.00">Location</text>
<polyline fill="none" stroke="black" points="983,-370 1127,-370 "/>
<text text-anchor="start" x="990" y="-356.5" font-family="ArialMT" font-size="10.00">deleted_at </text>
<text text-anchor="start" x="1039.49" y="-356.5" font-family="Arial ItalicMT" font-size="10.00" fill="#999999">datetime</text>
<text text-anchor="start" x="990" y="-343.5" font-family="ArialMT" font-size="10.00">name </text>
<text text-anchor="start" x="1017.79" y="-343.5" font-family="Arial ItalicMT" font-size="10.00" fill="#999999">text ∗</text>
<text text-anchor="start" x="990" y="-330.5" font-family="ArialMT" font-size="10.00">user_id </text>
<text text-anchor="start" x="1025.58" y="-330.5" font-family="Arial ItalicMT" font-size="10.00" fill="#999999">integer FK</text>
</g>
<!-- m_Question -->
<g id="node15" class="node"><title>m_Question</title>
<path fill="none" stroke="black" d="M1227,-301.5C1227,-301.5 1347,-301.5 1347,-301.5 1353,-301.5 1359,-307.5 1359,-313.5 1359,-313.5 1359,-396.5 1359,-396.5 1359,-402.5 1353,-408.5 1347,-408.5 1347,-408.5 1227,-408.5 1227,-408.5 1221,-408.5 1215,-402.5 1215,-396.5 1215,-396.5 1215,-313.5 1215,-313.5 1215,-307.5 1221,-301.5 1227,-301.5"/>
<text text-anchor="start" x="1262.99" y="-395.2" font-family="Arial BoldMT" font-size="11.00">Question</text>
<polyline fill="none" stroke="black" points="1215,-389.5 1359,-389.5 "/>
<text text-anchor="start" x="1222" y="-376.5" font-family="ArialMT" font-size="10.00">content </text>
<text text-anchor="start" x="1257.58" y="-376.5" font-family="Arial ItalicMT" font-size="10.00" fill="#999999">text</text>
<text text-anchor="start" x="1222" y="-363.5" font-family="ArialMT" font-size="10.00">deleted_at </text>
<text text-anchor="start" x="1271.49" y="-363.5" font-family="Arial ItalicMT" font-size="10.00" fill="#999999">datetime</text>
<text text-anchor="start" x="1222" y="-350.5" font-family="ArialMT" font-size="10.00">edited_at </text>
<text text-anchor="start" x="1265.93" y="-350.5" font-family="Arial ItalicMT" font-size="10.00" fill="#999999">datetime</text>
<text text-anchor="start" x="1222" y="-337.5" font-family="ArialMT" font-size="10.00">hot </text>
<text text-anchor="start" x="1238.68" y="-337.5" font-family="Arial ItalicMT" font-size="10.00" fill="#999999">float</text>
<text text-anchor="start" x="1222" y="-324.5" font-family="ArialMT" font-size="10.00">title </text>
<text text-anchor="start" x="1240.34" y="-324.5" font-family="Arial ItalicMT" font-size="10.00" fill="#999999">text ∗</text>
<text text-anchor="start" x="1222" y="-311.5" font-family="ArialMT" font-size="10.00">user_id </text>
<text text-anchor="start" x="1257.58" y="-311.5" font-family="Arial ItalicMT" font-size="10.00" fill="#999999">integer FK</text>
</g>
<!-- m_Question&#45;&gt;m_Activity -->
<g id="edge42" class="edge"><title>m_Question&#45;&gt;m_Activity</title>
<path fill="none" stroke="black" d="M1280.83,-301.323C1278.01,-252.074 1281.76,-179.097 1320,-131 1351.37,-91.5468 1404.25,-70.9118 1449.1,-60.1452"/>
<polygon fill="black" stroke="black" points="1449.89,-63.1976 1457.96,-58.1208 1448.48,-57.056 1449.89,-63.1976"/>
</g>
<!-- m_Question&#45;&gt;m_Answer -->
<g id="edge27" class="edge"><title>m_Question&#45;&gt;m_Answer</title>
<path fill="none" stroke="black" d="M1214.81,-324.654C1191.82,-316.112 1166.1,-307.374 1142,-301 957.291,-252.142 734.45,-221.725 617.219,-207.859"/>
<polygon fill="black" stroke="black" points="617.58,-204.729 608.274,-206.808 616.846,-210.986 617.58,-204.729"/>
</g>
<!-- m_Question&#45;&gt;m_DataReport -->
<g id="edge26" class="edge"><title>m_Question&#45;&gt;m_DataReport</title>
<path fill="none" stroke="black" stroke-dasharray="1,5" d="M1350.41,-408.666C1362.39,-416.203 1375.33,-422.802 1388.5,-427 1457.1,-448.861 1481.95,-449.021 1550.5,-427 1567.73,-421.466 1584.51,-411.768 1599.27,-401.25"/>
<polygon fill="black" stroke="black" points="1601.42,-403.573 1606.79,-395.692 1597.68,-398.505 1601.42,-403.573"/>
</g>
<!-- m_Question&#45;&gt;m_DataSet -->
<g id="edge24" class="edge"><title>m_Question&#45;&gt;m_DataSet</title>
<path fill="none" stroke="black" stroke-dasharray="1,5" d="M1219.13,-408.523C1206.27,-416.13 1192.46,-422.789 1178.5,-427 1137.76,-439.289 453.243,-439.289 412.5,-427 397.664,-422.525 382.994,-415.285 369.464,-407.08"/>
<polygon fill="black" stroke="black" points="370.932,-404.282 361.638,-402.152 367.575,-409.613 370.932,-404.282"/>
</g>
<!-- m_Question&#45;&gt;m_QuestionsDataReport -->
<g id="edge25" class="edge"><title>m_Question&#45;&gt;m_QuestionsDataReport</title>
<path fill="none" stroke="black" d="M1359.37,-308.077C1364.25,-305.552 1369.16,-303.166 1374,-301 1424.44,-278.446 1443.84,-290.23 1493,-265 1510.56,-255.99 1528.16,-243.29 1542.82,-231.434"/>
<polygon fill="black" stroke="black" points="1544.83,-233.858 1549.77,-225.701 1540.82,-228.998 1544.83,-233.858"/>
</g>
<!-- m_Question&#45;&gt;m_QuestionsDataSet -->
<g id="edge23" class="edge"><title>m_Question&#45;&gt;m_QuestionsDataSet</title>
<path fill="none" stroke="black" d="M1214.84,-322.82C1191.96,-314.247 1166.29,-305.954 1142,-301 839.804,-239.375 748.61,-338.169 449,-265 417.71,-257.359 384.883,-243.012 358.391,-229.642"/>
<polygon fill="black" stroke="black" points="359.828,-226.838 350.382,-225.532 356.951,-232.443 359.828,-226.838"/>
</g>
<!-- m_QuestionsFollowment -->
<g id="node18" class="node"><title>m_QuestionsFollowment</title>
<path fill="none" stroke="black" d="M1102,-170.5C1102,-170.5 1234,-170.5 1234,-170.5 1240,-170.5 1246,-176.5 1246,-182.5 1246,-182.5 1246,-213.5 1246,-213.5 1246,-219.5 1240,-225.5 1234,-225.5 1234,-225.5 1102,-225.5 1102,-225.5 1096,-225.5 1090,-219.5 1090,-213.5 1090,-213.5 1090,-182.5 1090,-182.5 1090,-176.5 1096,-170.5 1102,-170.5"/>
<text text-anchor="start" x="1113.12" y="-212.2" font-family="Arial BoldMT" font-size="11.00">QuestionsFollowment</text>
<polyline fill="none" stroke="black" points="1090,-206.5 1246,-206.5 "/>
<text text-anchor="start" x="1096.84" y="-193.5" font-family="ArialMT" font-size="10.00">followee_question_id </text>
<text text-anchor="start" x="1193.02" y="-193.5" font-family="Arial ItalicMT" font-size="10.00" fill="#999999">integer FK</text>
<text text-anchor="start" x="1097" y="-180.5" font-family="ArialMT" font-size="10.00">follower_id </text>
<text text-anchor="start" x="1147.58" y="-180.5" font-family="Arial ItalicMT" font-size="10.00" fill="#999999">integer FK</text>
</g>
<!-- m_Question&#45;&gt;m_QuestionsFollowment -->
<g id="edge28" class="edge"><title>m_Question&#45;&gt;m_QuestionsFollowment</title>
<path fill="none" stroke="black" d="M1246.38,-301.091C1229.07,-278.539 1209.37,-252.888 1194.06,-232.94"/>
<polygon fill="black" stroke="black" points="1196.39,-230.812 1188.42,-225.592 1191.4,-234.649 1196.39,-230.812"/>
</g>
<!-- m_QuestionsTopic -->
<g id="node19" class="node"><title>m_QuestionsTopic</title>
<path fill="none" stroke="black" d="M1346,-170.5C1346,-170.5 1466,-170.5 1466,-170.5 1472,-170.5 1478,-176.5 1478,-182.5 1478,-182.5 1478,-213.5 1478,-213.5 1478,-219.5 1472,-225.5 1466,-225.5 1466,-225.5 1346,-225.5 1346,-225.5 1340,-225.5 1334,-219.5 1334,-213.5 1334,-213.5 1334,-182.5 1334,-182.5 1334,-176.5 1340,-170.5 1346,-170.5"/>
<text text-anchor="start" x="1366.4" y="-212.2" font-family="Arial BoldMT" font-size="11.00">QuestionsTopic</text>
<polyline fill="none" stroke="black" points="1334,-206.5 1478,-206.5 "/>
<text text-anchor="start" x="1341" y="-193.5" font-family="ArialMT" font-size="10.00">question_id </text>
<text text-anchor="start" x="1394.93" y="-193.5" font-family="Arial ItalicMT" font-size="10.00" fill="#999999">integer FK</text>
<text text-anchor="start" x="1341" y="-180.5" font-family="ArialMT" font-size="10.00">topic_id </text>
<text text-anchor="start" x="1378.25" y="-180.5" font-family="Arial ItalicMT" font-size="10.00" fill="#999999">integer FK</text>
</g>
<!-- m_Question&#45;&gt;m_QuestionsTopic -->
<g id="edge22" class="edge"><title>m_Question&#45;&gt;m_QuestionsTopic</title>
<path fill="none" stroke="black" d="M1327.62,-301.091C1344.93,-278.539 1364.63,-252.888 1379.94,-232.94"/>
<polygon fill="black" stroke="black" points="1382.6,-234.649 1385.58,-225.592 1377.61,-230.812 1382.6,-234.649"/>
</g>
<!-- m_Solution&#45;&gt;m_FileUploaded -->
<g id="edge39" class="edge"><title>m_Solution&#45;&gt;m_FileUploaded</title>
<path fill="none" stroke="black" d="M115.959,-314.486C111.181,-301.933 105.73,-287.614 100.332,-273.432"/>
<polygon fill="black" stroke="black" points="103.13,-271.927 96.9842,-264.637 97.2421,-274.168 103.13,-271.927"/>
</g>
<!-- m_Topic -->
<g id="node21" class="node"><title>m_Topic</title>
<path fill="none" stroke="black" d="M1400,-314.5C1400,-314.5 1520,-314.5 1520,-314.5 1526,-314.5 1532,-320.5 1532,-326.5 1532,-326.5 1532,-383.5 1532,-383.5 1532,-389.5 1526,-395.5 1520,-395.5 1520,-395.5 1400,-395.5 1400,-395.5 1394,-395.5 1388,-389.5 1388,-383.5 1388,-383.5 1388,-326.5 1388,-326.5 1388,-320.5 1394,-314.5 1400,-314.5"/>
<text text-anchor="start" x="1445.16" y="-382.2" font-family="Arial BoldMT" font-size="11.00">Topic</text>
<polyline fill="none" stroke="black" points="1388,-376.5 1532,-376.5 "/>
<text text-anchor="start" x="1395" y="-363.5" font-family="ArialMT" font-size="10.00">deleted_at </text>
<text text-anchor="start" x="1444.49" y="-363.5" font-family="Arial ItalicMT" font-size="10.00" fill="#999999">datetime</text>
<text text-anchor="start" x="1395" y="-350.5" font-family="ArialMT" font-size="10.00">description </text>
<text text-anchor="start" x="1446.14" y="-350.5" font-family="Arial ItalicMT" font-size="10.00" fill="#999999">text</text>
<text text-anchor="start" x="1395" y="-337.5" font-family="ArialMT" font-size="10.00">name </text>
<text text-anchor="start" x="1422.79" y="-337.5" font-family="Arial ItalicMT" font-size="10.00" fill="#999999">text ∗</text>
<text text-anchor="start" x="1395" y="-324.5" font-family="ArialMT" font-size="10.00">origin_id </text>
<text text-anchor="start" x="1435.58" y="-324.5" font-family="Arial ItalicMT" font-size="10.00" fill="#999999">integer FK</text>
</g>
<!-- m_Topic&#45;&gt;m_Question -->
<g id="edge21" class="edge"><title>m_Topic&#45;&gt;m_Question</title>
<path fill="none" stroke="black" stroke-dasharray="1,5" d="M1387.63,-355C1381.29,-355 1374.94,-355 1368.6,-355"/>
<polygon fill="black" stroke="black" points="1368.31,-351.85 1359.31,-355 1368.31,-358.15 1368.31,-351.85"/>
</g>
<!-- m_Topic&#45;&gt;m_QuestionsTopic -->
<g id="edge20" class="edge"><title>m_Topic&#45;&gt;m_QuestionsTopic</title>
<path fill="none" stroke="black" d="M1446.23,-314.486C1437.64,-289.831 1426.68,-258.362 1418.37,-234.502"/>
<polygon fill="black" stroke="black" points="1421.26,-233.223 1415.32,-225.76 1415.31,-235.295 1421.26,-233.223"/>
</g>
<!-- m_Topic&#45;&gt;m_Topic -->
<g id="edge19" class="edge"><title>m_Topic&#45;&gt;m_Topic</title>
<path fill="none" stroke="black" d="M1532.18,-383.606C1548.79,-381.141 1561,-371.605 1561,-355 1561,-341.508 1552.94,-332.684 1541.01,-328.527"/>
<polygon fill="black" stroke="black" points="1541.66,-325.445 1532.18,-326.394 1540.18,-331.569 1541.66,-325.445"/>
</g>
<!-- m_User&#45;&gt;m_Activity -->
<g id="edge18" class="edge"><title>m_User&#45;&gt;m_Activity</title>
<path fill="none" stroke="black" d="M954.142,-513.73C1151.03,-502.711 1686.37,-467.582 1738,-409 1778.94,-362.542 1707.41,-139.129 1701,-131 1678.42,-102.371 1643.43,-83.0799 1610.97,-70.4019"/>
<polygon fill="black" stroke="black" points="1611.87,-67.3756 1602.33,-67.1596 1609.65,-73.2733 1611.87,-67.3756"/>
</g>
<!-- m_User&#45;&gt;m_Answer -->
<g id="edge12" class="edge"><title>m_User&#45;&gt;m_Answer</title>
<path fill="none" stroke="black" d="M420,-354C403.088,-317.927 426.707,-282.028 456.95,-253.876"/>
<polygon fill="black" stroke="black" points="459.319,-255.982 463.91,-247.625 455.109,-251.295 459.319,-255.982"/>
</g>
<!-- m_User&#45;&gt;m_Comment -->
<g id="edge13" class="edge"><title>m_User&#45;&gt;m_Comment</title>
<path fill="none" stroke="black" d="M420,-354C381.511,-271.901 418.493,-166.027 448.482,-102.915"/>
<polygon fill="black" stroke="black" points="451.383,-104.152 452.471,-94.6786 445.713,-101.405 451.383,-104.152"/>
<path fill="none" stroke="black" d="M809.627,-516.591C716.93,-511.881 555.554,-491.326 449,-409 427.752,-392.583 431.398,-380.312 420,-356"/>
</g>
<!-- m_User&#45;&gt;m_DataReport -->
<g id="edge10" class="edge"><title>m_User&#45;&gt;m_DataReport</title>
<path fill="none" stroke="black" d="M954.138,-515.299C1081.35,-509.416 1352.22,-487.859 1565,-409 1571.71,-406.514 1578.46,-403.476 1585.07,-400.123"/>
<polygon fill="black" stroke="black" points="1586.89,-402.727 1593.36,-395.727 1583.93,-397.162 1586.89,-402.727"/>
</g>
<!-- m_User&#45;&gt;m_DataSet -->
<g id="edge9" class="edge"><title>m_User&#45;&gt;m_DataSet</title>
<path fill="none" stroke="black" d="M809.958,-508.086C713.687,-494.005 538.866,-463.145 398,-409 393.464,-407.257 388.883,-405.322 384.311,-403.254"/>
<polygon fill="black" stroke="black" points="385.59,-400.375 376.105,-399.398 382.911,-406.076 385.59,-400.375"/>
</g>
<!-- m_User&#45;&gt;m_Education -->
<g id="edge4" class="edge"><title>m_User&#45;&gt;m_Education</title>
<path fill="none" stroke="black" d="M809.73,-490.861C756.782,-470.503 683.694,-440.636 622,-409 616.653,-406.258 611.196,-403.3 605.755,-400.234"/>
<polygon fill="black" stroke="black" points="607.183,-397.422 597.809,-395.676 604.049,-402.887 607.183,-397.422"/>
</g>
<!-- m_User&#45;&gt;m_Employment -->
<g id="edge3" class="edge"><title>m_User&#45;&gt;m_Employment</title>
<path fill="none" stroke="black" d="M809.885,-450.179C792.525,-433.972 774.369,-417.023 758.321,-402.043"/>
<polygon fill="black" stroke="black" points="760.31,-399.59 751.581,-395.751 756.01,-404.195 760.31,-399.59"/>
</g>
<!-- m_User&#45;&gt;m_Followment -->
<g id="edge5" class="edge"><title>m_User&#45;&gt;m_Followment</title>
<path fill="none" stroke="black" d="M882,-445.253C882,-426.752 882,-407.65 882,-391.888"/>
<polygon fill="black" stroke="black" points="885.15,-391.541 882,-382.541 878.85,-391.541 885.15,-391.541"/>
</g>
<!-- m_User&#45;&gt;m_Location -->
<g id="edge2" class="edge"><title>m_User&#45;&gt;m_Location</title>
<path fill="none" stroke="black" d="M954.115,-450.179C974.086,-431.535 995.109,-411.909 1012.77,-395.427"/>
<polygon fill="black" stroke="black" points="1015.18,-397.484 1019.61,-389.04 1010.88,-392.879 1015.18,-397.484"/>
</g>
<!-- m_User&#45;&gt;m_Question -->
<g id="edge11" class="edge"><title>m_User&#45;&gt;m_Question</title>
<path fill="none" stroke="black" d="M954.118,-496.346C1018.07,-476.651 1113.4,-444.979 1193,-409 1197.48,-406.974 1202.03,-404.807 1206.59,-402.548"/>
<polygon fill="black" stroke="black" points="1208.19,-405.271 1214.79,-398.394 1205.34,-399.651 1208.19,-405.271"/>
</g>
<!-- m_User&#45;&gt;m_QuestionsFollowment -->
<g id="edge16" class="edge"><title>m_User&#45;&gt;m_QuestionsFollowment</title>
<path fill="none" stroke="black" d="M954.204,-507.526C1014.36,-495.184 1097.2,-468.021 1142,-409 1180.47,-358.326 1178.79,-280.109 1173.68,-234.804"/>
<polygon fill="black" stroke="black" points="1176.78,-234.204 1172.55,-225.658 1170.52,-234.976 1176.78,-234.204"/>
</g>
<!-- m_User&#45;&gt;m_Solution -->
<g id="edge14" class="edge"><title>m_User&#45;&gt;m_Solution</title>
<path fill="none" stroke="black" d="M809.781,-514.869C685.104,-508.345 423.051,-485.858 217,-409 210.299,-406.5 203.55,-403.452 196.939,-400.094"/>
<polygon fill="black" stroke="black" points="198.079,-397.132 188.653,-395.691 195.123,-402.696 198.079,-397.132"/>
</g>
<!-- m_User&#45;&gt;m_User -->
<g id="edge6" class="edge"><title>m_User&#45;&gt;m_User</title>
<path fill="none" stroke="black" stroke-dasharray="1,5" d="M954.176,-531.703C970.793,-530.565 983,-526.164 983,-518.5 983,-512.333 975.096,-508.279 963.35,-506.337"/>
<polygon fill="black" stroke="black" points="963.473,-503.181 954.176,-505.297 962.764,-509.441 963.473,-503.181"/>
</g>
<!-- m_User&#45;&gt;m_User -->
<g id="edge8" class="edge"><title>m_User&#45;&gt;m_User</title>
<path fill="none" stroke="black" stroke-dasharray="1,5" d="M954.19,-545.177C985.335,-547.361 1012,-538.469 1012,-518.5 1012,-500.559 990.476,-491.559 963.518,-491.5"/>
<polygon fill="black" stroke="black" points="963.076,-488.364 954.19,-491.823 963.294,-494.66 963.076,-488.364"/>
</g>
</g>
</svg>
