<?xml version="1.0" encoding="UTF-8" standalone="no"?>
<!DOCTYPE svg PUBLIC "-//W3C//DTD SVG 1.1//EN"
 "http://www.w3.org/Graphics/SVG/1.1/DTD/svg11.dtd">
<!-- Generated by graphviz version 2.38.0 (20140413.2041)
 -->
<!-- Title: HermesBackend Pages: 1 -->
<svg width="1847pt" height="778pt"
 viewBox="0.00 0.00 1846.60 777.60" xmlns="http://www.w3.org/2000/svg" xmlns:xlink="http://www.w3.org/1999/xlink">
<g id="graph0" class="graph" transform="scale(1 1) rotate(0) translate(28.8 748.8)">
<title>HermesBackend</title>
<polygon fill="white" stroke="none" points="-28.8,28.8 -28.8,-748.8 1817.8,-748.8 1817.8,28.8 -28.8,28.8"/>
<text text-anchor="middle" x="894.5" y="-705.6" font-family="Arial BoldMT" font-size="13.00">Hermes Domain Models</text>
<!-- m_Activity -->
<g id="node1" class="node"><title>m_Activity</title>
<path fill="none" stroke="black" d="M737,-0.5C737,-0.5 857,-0.5 857,-0.5 863,-0.5 869,-6.5 869,-12.5 869,-12.5 869,-82.5 869,-82.5 869,-88.5 863,-94.5 857,-94.5 857,-94.5 737,-94.5 737,-94.5 731,-94.5 725,-88.5 725,-82.5 725,-82.5 725,-12.5 725,-12.5 725,-6.5 731,-0.5 737,-0.5"/>
<text text-anchor="start" x="777.582" y="-81.2" font-family="Arial BoldMT" font-size="11.00">Activity</text>
<polyline fill="none" stroke="black" points="725,-75.5 869,-75.5 "/>
<text text-anchor="start" x="732" y="-62" font-family="ArialMT" font-size="10.00">answer_id </text>
<text text-anchor="start" x="780.359" y="-62" font-family="Arial ItalicMT" font-size="10.00" fill="#999999">integer FK</text>
<text text-anchor="start" x="732" y="-49" font-family="ArialMT" font-size="10.00">payload </text>
<text text-anchor="start" x="769.808" y="-49" font-family="Arial ItalicMT" font-size="10.00" fill="#999999">jsonb</text>
<text text-anchor="start" x="732" y="-36" font-family="ArialMT" font-size="10.00">question_id </text>
<text text-anchor="start" x="785.931" y="-36" font-family="Arial ItalicMT" font-size="10.00" fill="#999999">integer FK</text>
<text text-anchor="start" x="732" y="-23" font-family="ArialMT" font-size="10.00">user_id </text>
<text text-anchor="start" x="767.576" y="-23" font-family="Arial ItalicMT" font-size="10.00" fill="#999999">integer FK</text>
<text text-anchor="start" x="732" y="-10" font-family="ArialMT" font-size="10.00">verb </text>
<text text-anchor="start" x="754.231" y="-10" font-family="Arial ItalicMT" font-size="10.00" fill="#999999">text ∗</text>
</g>
<!-- m_Answer -->
<g id="node2" class="node"><title>m_Answer</title>
<path fill="none" stroke="black" d="M1353,-131.5C1353,-131.5 1473,-131.5 1473,-131.5 1479,-131.5 1485,-137.5 1485,-143.5 1485,-143.5 1485,-239.5 1485,-239.5 1485,-245.5 1479,-251.5 1473,-251.5 1473,-251.5 1353,-251.5 1353,-251.5 1347,-251.5 1341,-245.5 1341,-239.5 1341,-239.5 1341,-143.5 1341,-143.5 1341,-137.5 1347,-131.5 1353,-131.5"/>
<text text-anchor="start" x="1392.66" y="-238.2" font-family="Arial BoldMT" font-size="11.00">Answer</text>
<polyline fill="none" stroke="black" points="1341,-232.5 1485,-232.5 "/>
<text text-anchor="start" x="1348" y="-219" font-family="ArialMT" font-size="10.00">confidence </text>
<text text-anchor="start" x="1399.15" y="-219" font-family="Arial ItalicMT" font-size="10.00" fill="#999999">float</text>
<text text-anchor="start" x="1348" y="-206" font-family="ArialMT" font-size="10.00">content </text>
<text text-anchor="start" x="1383.58" y="-206" font-family="Arial ItalicMT" font-size="10.00" fill="#999999">text ∗</text>
<text text-anchor="start" x="1348" y="-193" font-family="ArialMT" font-size="10.00">deleted_at </text>
<text text-anchor="start" x="1397.49" y="-193" font-family="Arial ItalicMT" font-size="10.00" fill="#999999">datetime</text>
<text text-anchor="start" x="1348" y="-180" font-family="ArialMT" font-size="10.00">edited_at </text>
<text text-anchor="start" x="1391.93" y="-180" font-family="Arial ItalicMT" font-size="10.00" fill="#999999">datetime</text>
<text text-anchor="start" x="1348" y="-167" font-family="ArialMT" font-size="10.00">hot </text>
<text text-anchor="start" x="1364.68" y="-167" font-family="Arial ItalicMT" font-size="10.00" fill="#999999">float</text>
<text text-anchor="start" x="1348" y="-154" font-family="ArialMT" font-size="10.00">question_id </text>
<text text-anchor="start" x="1401.93" y="-154" font-family="Arial ItalicMT" font-size="10.00" fill="#999999">integer FK</text>
<text text-anchor="start" x="1348" y="-141" font-family="ArialMT" font-size="10.00">user_id </text>
<text text-anchor="start" x="1383.58" y="-141" font-family="Arial ItalicMT" font-size="10.00" fill="#999999">integer FK</text>
</g>
<!-- m_Answer&#45;&gt;m_Activity -->
<g id="edge38" class="edge"><title>m_Answer&#45;&gt;m_Activity</title>
<path fill="none" stroke="black" d="M1340.87,-140.863C1333.68,-137.135 1326.32,-133.759 1319,-131 1317.71,-130.514 1024.42,-84.3015 878.086,-61.2625"/>
<polygon fill="black" stroke="black" points="878.472,-58.1347 869.092,-59.8465 877.492,-64.358 878.472,-58.1347"/>
</g>
<!-- m_AnswersDataReport -->
<g id="node3" class="node"><title>m_AnswersDataReport</title>
<path fill="none" stroke="black" d="M1119,-20C1119,-20 1239,-20 1239,-20 1245,-20 1251,-26 1251,-32 1251,-32 1251,-63 1251,-63 1251,-69 1245,-75 1239,-75 1239,-75 1119,-75 1119,-75 1113,-75 1107,-69 1107,-63 1107,-63 1107,-32 1107,-32 1107,-26 1113,-20 1119,-20"/>
<text text-anchor="start" x="1127.78" y="-61.7" font-family="Arial BoldMT" font-size="11.00">AnswersDataReport</text>
<polyline fill="none" stroke="black" points="1107,-56 1251,-56 "/>
<text text-anchor="start" x="1114" y="-43" font-family="ArialMT" font-size="10.00">answer_id </text>
<text text-anchor="start" x="1162.36" y="-43" font-family="Arial ItalicMT" font-size="10.00" fill="#999999">integer FK</text>
<text text-anchor="start" x="1114" y="-30" font-family="ArialMT" font-size="10.00">data_report_id </text>
<text text-anchor="start" x="1181.27" y="-30" font-family="Arial ItalicMT" font-size="10.00" fill="#999999">integer FK</text>
</g>
<!-- m_Answer&#45;&gt;m_AnswersDataReport -->
<g id="edge30" class="edge"><title>m_Answer&#45;&gt;m_AnswersDataReport</title>
<path fill="none" stroke="black" d="M1340.78,-144.464C1333.45,-139.884 1326.09,-135.33 1319,-131 1290.75,-113.739 1258.97,-94.9658 1232.85,-79.6944"/>
<polygon fill="black" stroke="black" points="1234.29,-76.8899 1224.93,-75.0729 1231.12,-82.3307 1234.29,-76.8899"/>
</g>
<!-- m_AnswersDataSet -->
<g id="node4" class="node"><title>m_AnswersDataSet</title>
<path fill="none" stroke="black" d="M1397,-20C1397,-20 1517,-20 1517,-20 1523,-20 1529,-26 1529,-32 1529,-32 1529,-63 1529,-63 1529,-69 1523,-75 1517,-75 1517,-75 1397,-75 1397,-75 1391,-75 1385,-69 1385,-63 1385,-63 1385,-32 1385,-32 1385,-26 1391,-20 1397,-20"/>
<text text-anchor="start" x="1414.04" y="-61.7" font-family="Arial BoldMT" font-size="11.00">AnswersDataSet</text>
<polyline fill="none" stroke="black" points="1385,-56 1529,-56 "/>
<text text-anchor="start" x="1392" y="-43" font-family="ArialMT" font-size="10.00">answer_id </text>
<text text-anchor="start" x="1440.36" y="-43" font-family="Arial ItalicMT" font-size="10.00" fill="#999999">integer FK</text>
<text text-anchor="start" x="1392" y="-30" font-family="ArialMT" font-size="10.00">data_set_id </text>
<text text-anchor="start" x="1446.49" y="-30" font-family="Arial ItalicMT" font-size="10.00" fill="#999999">integer FK</text>
</g>
<!-- m_Answer&#45;&gt;m_AnswersDataSet -->
<g id="edge28" class="edge"><title>m_Answer&#45;&gt;m_AnswersDataSet</title>
<path fill="none" stroke="black" d="M1431.41,-131.102C1436.35,-115.142 1441.54,-98.3784 1445.95,-84.155"/>
<polygon fill="black" stroke="black" points="1449.07,-84.7382 1448.72,-75.2091 1443.05,-82.8735 1449.07,-84.7382"/>
</g>
<!-- m_Comment -->
<g id="node6" class="node"><title>m_Comment</title>
<path fill="none" stroke="black" d="M1657,-0.5C1657,-0.5 1777,-0.5 1777,-0.5 1783,-0.5 1789,-6.5 1789,-12.5 1789,-12.5 1789,-82.5 1789,-82.5 1789,-88.5 1783,-94.5 1777,-94.5 1777,-94.5 1657,-94.5 1657,-94.5 1651,-94.5 1645,-88.5 1645,-82.5 1645,-82.5 1645,-12.5 1645,-12.5 1645,-6.5 1651,-0.5 1657,-0.5"/>
<text text-anchor="start" x="1691.16" y="-81.2" font-family="Arial BoldMT" font-size="11.00">Comment</text>
<polyline fill="none" stroke="black" points="1645,-75.5 1789,-75.5 "/>
<text text-anchor="start" x="1652" y="-62" font-family="ArialMT" font-size="10.00">answer_id </text>
<text text-anchor="start" x="1700.36" y="-62" font-family="Arial ItalicMT" font-size="10.00" fill="#999999">integer FK</text>
<text text-anchor="start" x="1652" y="-49" font-family="ArialMT" font-size="10.00">content </text>
<text text-anchor="start" x="1687.58" y="-49" font-family="Arial ItalicMT" font-size="10.00" fill="#999999">text ∗</text>
<text text-anchor="start" x="1652" y="-36" font-family="ArialMT" font-size="10.00">deleted_at </text>
<text text-anchor="start" x="1701.49" y="-36" font-family="Arial ItalicMT" font-size="10.00" fill="#999999">datetime</text>
<text text-anchor="start" x="1652" y="-23" font-family="ArialMT" font-size="10.00">reply_to_id </text>
<text text-anchor="start" x="1703.7" y="-23" font-family="Arial ItalicMT" font-size="10.00" fill="#999999">integer FK</text>
<text text-anchor="start" x="1652" y="-10" font-family="ArialMT" font-size="10.00">user_id </text>
<text text-anchor="start" x="1687.58" y="-10" font-family="Arial ItalicMT" font-size="10.00" fill="#999999">integer FK</text>
</g>
<!-- m_Answer&#45;&gt;m_Comment -->
<g id="edge32" class="edge"><title>m_Answer&#45;&gt;m_Comment</title>
<path fill="none" stroke="black" d="M1485.32,-139.205C1490.22,-136.306 1495.13,-133.543 1500,-131 1543.35,-108.343 1594.37,-88.6262 1636.05,-74.154"/>
<polygon fill="black" stroke="black" points="1637.3,-77.0524 1644.79,-71.1463 1635.26,-71.0949 1637.3,-77.0524"/>
</g>
<!-- m_DataReport -->
<g id="node7" class="node"><title>m_DataReport</title>
<path fill="none" stroke="black" d="M763,-301.5C763,-301.5 883,-301.5 883,-301.5 889,-301.5 895,-307.5 895,-313.5 895,-313.5 895,-370.5 895,-370.5 895,-376.5 889,-382.5 883,-382.5 883,-382.5 763,-382.5 763,-382.5 757,-382.5 751,-376.5 751,-370.5 751,-370.5 751,-313.5 751,-313.5 751,-307.5 757,-301.5 763,-301.5"/>
<text text-anchor="start" x="792.874" y="-369.2" font-family="Arial BoldMT" font-size="11.00">DataReport</text>
<polyline fill="none" stroke="black" points="751,-363.5 895,-363.5 "/>
<text text-anchor="start" x="758" y="-350.5" font-family="ArialMT" font-size="10.00">deleted_at </text>
<text text-anchor="start" x="807.487" y="-350.5" font-family="Arial ItalicMT" font-size="10.00" fill="#999999">datetime</text>
<text text-anchor="start" x="758" y="-337.5" font-family="ArialMT" font-size="10.00">title </text>
<text text-anchor="start" x="776.34" y="-337.5" font-family="Arial ItalicMT" font-size="10.00" fill="#999999">text ∗</text>
<text text-anchor="start" x="758" y="-324.5" font-family="ArialMT" font-size="10.00">url </text>
<text text-anchor="start" x="771.892" y="-324.5" font-family="Arial ItalicMT" font-size="10.00" fill="#999999">text ∗</text>
<text text-anchor="start" x="758" y="-311.5" font-family="ArialMT" font-size="10.00">user_id </text>
<text text-anchor="start" x="793.576" y="-311.5" font-family="Arial ItalicMT" font-size="10.00" fill="#999999">integer FK</text>
</g>
<!-- m_Answer&#45;&gt;m_DataReport -->
<g id="edge31" class="edge"><title>m_Answer&#45;&gt;m_DataReport</title>
<path fill="none" stroke="black" stroke-dasharray="1,5" d="M1340.92,-226.552C1318.04,-236.134 1292.36,-245.661 1268,-252 1138.47,-285.712 1099.2,-256.962 969,-288 947.444,-293.139 924.683,-300.44 903.711,-307.985"/>
<polygon fill="black" stroke="black" points="902.525,-305.065 895.153,-311.113 904.687,-310.982 902.525,-305.065"/>
</g>
<!-- m_DataSet -->
<g id="node8" class="node"><title>m_DataSet</title>
<path fill="none" stroke="black" d="M1526,-301.5C1526,-301.5 1646,-301.5 1646,-301.5 1652,-301.5 1658,-307.5 1658,-313.5 1658,-313.5 1658,-370.5 1658,-370.5 1658,-376.5 1652,-382.5 1646,-382.5 1646,-382.5 1526,-382.5 1526,-382.5 1520,-382.5 1514,-376.5 1514,-370.5 1514,-370.5 1514,-313.5 1514,-313.5 1514,-307.5 1520,-301.5 1526,-301.5"/>
<text text-anchor="start" x="1564.13" y="-369.2" font-family="Arial BoldMT" font-size="11.00">DataSet</text>
<polyline fill="none" stroke="black" points="1514,-363.5 1658,-363.5 "/>
<text text-anchor="start" x="1521" y="-350.5" font-family="ArialMT" font-size="10.00">deleted_at </text>
<text text-anchor="start" x="1570.49" y="-350.5" font-family="Arial ItalicMT" font-size="10.00" fill="#999999">datetime</text>
<text text-anchor="start" x="1521" y="-337.5" font-family="ArialMT" font-size="10.00">title </text>
<text text-anchor="start" x="1539.34" y="-337.5" font-family="Arial ItalicMT" font-size="10.00" fill="#999999">text ∗</text>
<text text-anchor="start" x="1521" y="-324.5" font-family="ArialMT" font-size="10.00">url </text>
<text text-anchor="start" x="1534.89" y="-324.5" font-family="Arial ItalicMT" font-size="10.00" fill="#999999">text ∗</text>
<text text-anchor="start" x="1521" y="-311.5" font-family="ArialMT" font-size="10.00">user_id </text>
<text text-anchor="start" x="1556.58" y="-311.5" font-family="Arial ItalicMT" font-size="10.00" fill="#999999">integer FK</text>
</g>
<!-- m_Answer&#45;&gt;m_DataSet -->
<g id="edge29" class="edge"><title>m_Answer&#45;&gt;m_DataSet</title>
<path fill="none" stroke="black" stroke-dasharray="1,5" d="M1481.95,-251.683C1498.75,-266.105 1516.47,-281.319 1532.44,-295.023"/>
<polygon fill="black" stroke="black" points="1530.76,-297.733 1539.64,-301.205 1534.86,-292.952 1530.76,-297.733"/>
</g>
<!-- m_Business -->
<g id="node5" class="node"><title>m_Business</title>
<path fill="none" stroke="black" d="M760.5,-615.5C760.5,-615.5 885.5,-615.5 885.5,-615.5 891.5,-615.5 897.5,-621.5 897.5,-627.5 897.5,-627.5 897.5,-671.5 897.5,-671.5 897.5,-677.5 891.5,-683.5 885.5,-683.5 885.5,-683.5 760.5,-683.5 760.5,-683.5 754.5,-683.5 748.5,-677.5 748.5,-671.5 748.5,-671.5 748.5,-627.5 748.5,-627.5 748.5,-621.5 754.5,-615.5 760.5,-615.5"/>
<text text-anchor="start" x="798.683" y="-670.2" font-family="Arial BoldMT" font-size="11.00">Business</text>
<polyline fill="none" stroke="black" points="748.5,-664.5 897.5,-664.5 "/>
<text text-anchor="start" x="756" y="-651" font-family="ArialMT" font-size="10.00">deleted_at </text>
<text text-anchor="start" x="805.487" y="-651" font-family="Arial ItalicMT" font-size="10.00" fill="#999999">datetime</text>
<text text-anchor="start" x="756" y="-638" font-family="ArialMT" font-size="10.00">name </text>
<text text-anchor="start" x="783.793" y="-638" font-family="Arial ItalicMT" font-size="10.00" fill="#999999">text ∗</text>
<text text-anchor="start" x="755.68" y="-625" font-family="ArialMT" font-size="10.00">parent_business_id </text>
<text text-anchor="start" x="845.187" y="-625" font-family="Arial ItalicMT" font-size="10.00" fill="#999999">integer FK</text>
</g>
<!-- m_Business&#45;&gt;m_Business -->
<g id="edge39" class="edge"><title>m_Business&#45;&gt;m_Business</title>
<path fill="none" stroke="black" d="M897.895,-675.773C914.446,-673.305 926.5,-664.547 926.5,-649.5 926.5,-637.274 918.542,-629.201 906.681,-625.279"/>
<polygon fill="black" stroke="black" points="907.376,-622.206 897.895,-623.227 905.943,-628.341 907.376,-622.206"/>
</g>
<!-- m_User -->
<g id="node19" class="node"><title>m_User</title>
<path fill="none" stroke="black" d="M763,-432.5C763,-432.5 883,-432.5 883,-432.5 889,-432.5 895,-438.5 895,-444.5 895,-444.5 895,-566.5 895,-566.5 895,-572.5 889,-578.5 883,-578.5 883,-578.5 763,-578.5 763,-578.5 757,-578.5 751,-572.5 751,-566.5 751,-566.5 751,-444.5 751,-444.5 751,-438.5 757,-432.5 763,-432.5"/>
<text text-anchor="start" x="809.388" y="-565.2" font-family="Arial BoldMT" font-size="11.00">User</text>
<polyline fill="none" stroke="black" points="751,-559.5 895,-559.5 "/>
<text text-anchor="start" x="758" y="-546" font-family="ArialMT" font-size="10.00">avatar </text>
<text text-anchor="start" x="788.571" y="-546" font-family="Arial ItalicMT" font-size="10.00" fill="#999999">string</text>
<text text-anchor="start" x="758" y="-533" font-family="ArialMT" font-size="10.00">business_id </text>
<text text-anchor="start" x="813.591" y="-533" font-family="Arial ItalicMT" font-size="10.00" fill="#999999">integer FK</text>
<text text-anchor="start" x="758" y="-520" font-family="ArialMT" font-size="10.00">confidence </text>
<text text-anchor="start" x="809.147" y="-520" font-family="Arial ItalicMT" font-size="10.00" fill="#999999">float</text>
<text text-anchor="start" x="758" y="-507" font-family="ArialMT" font-size="10.00">deleted_at </text>
<text text-anchor="start" x="807.487" y="-507" font-family="Arial ItalicMT" font-size="10.00" fill="#999999">datetime</text>
<text text-anchor="start" x="758" y="-494" font-family="ArialMT" font-size="10.00">description </text>
<text text-anchor="start" x="809.138" y="-494" font-family="Arial ItalicMT" font-size="10.00" fill="#999999">text</text>
<text text-anchor="start" x="758" y="-481" font-family="ArialMT" font-size="10.00">display_name </text>
<text text-anchor="start" x="822.482" y="-481" font-family="Arial ItalicMT" font-size="10.00" fill="#999999">text ∗</text>
<text text-anchor="start" x="758" y="-468" font-family="ArialMT" font-size="10.00">email </text>
<text text-anchor="start" x="784.675" y="-468" font-family="Arial ItalicMT" font-size="10.00" fill="#999999">text ∗ U</text>
<text text-anchor="start" x="758" y="-455" font-family="ArialMT" font-size="10.00">gender </text>
<text text-anchor="start" x="791.916" y="-455" font-family="Arial ItalicMT" font-size="10.00" fill="#999999">text</text>
<text text-anchor="start" x="758" y="-442" font-family="ArialMT" font-size="10.00">password_digest </text>
<text text-anchor="start" x="835.822" y="-442" font-family="Arial ItalicMT" font-size="10.00" fill="#999999">text</text>
</g>
<!-- m_Business&#45;&gt;m_User -->
<g id="edge1" class="edge"><title>m_Business&#45;&gt;m_User</title>
<path fill="none" stroke="black" d="M823,-615.207C823,-606.821 823,-597.446 823,-587.812"/>
<polygon fill="black" stroke="black" points="826.15,-587.52 823,-578.52 819.85,-587.52 826.15,-587.52"/>
</g>
<!-- m_DataReport&#45;&gt;m_AnswersDataReport -->
<g id="edge36" class="edge"><title>m_DataReport&#45;&gt;m_AnswersDataReport</title>
<path fill="none" stroke="black" d="M771.91,-301.235C757.886,-287.338 744.488,-270.526 737,-252 716.847,-202.141 702.639,-172.368 737,-131 748.511,-117.142 973.322,-80.361 1097.78,-60.93"/>
<polygon fill="black" stroke="black" points="1098.52,-64.0024 1106.93,-59.5044 1097.55,-57.7775 1098.52,-64.0024"/>
</g>
<!-- m_QuestionsDataReport -->
<g id="node14" class="node"><title>m_QuestionsDataReport</title>
<path fill="none" stroke="black" d="M763,-164C763,-164 883,-164 883,-164 889,-164 895,-170 895,-176 895,-176 895,-207 895,-207 895,-213 889,-219 883,-219 883,-219 763,-219 763,-219 757,-219 751,-213 751,-207 751,-207 751,-176 751,-176 751,-170 757,-164 763,-164"/>
<text text-anchor="start" x="768.111" y="-205.7" font-family="Arial BoldMT" font-size="11.00">QuestionsDataReport</text>
<polyline fill="none" stroke="black" points="751,-200 895,-200 "/>
<text text-anchor="start" x="758" y="-187" font-family="ArialMT" font-size="10.00">data_report_id </text>
<text text-anchor="start" x="825.271" y="-187" font-family="Arial ItalicMT" font-size="10.00" fill="#999999">integer FK</text>
<text text-anchor="start" x="758" y="-174" font-family="ArialMT" font-size="10.00">question_id </text>
<text text-anchor="start" x="811.931" y="-174" font-family="Arial ItalicMT" font-size="10.00" fill="#999999">integer FK</text>
</g>
<!-- m_DataReport&#45;&gt;m_QuestionsDataReport -->
<g id="edge35" class="edge"><title>m_DataReport&#45;&gt;m_QuestionsDataReport</title>
<path fill="none" stroke="black" d="M823,-301.205C823,-278.502 823,-250.278 823,-228.279"/>
<polygon fill="black" stroke="black" points="826.15,-228.266 823,-219.266 819.85,-228.266 826.15,-228.266"/>
</g>
<!-- m_DataSet&#45;&gt;m_AnswersDataSet -->
<g id="edge34" class="edge"><title>m_DataSet&#45;&gt;m_AnswersDataSet</title>
<path fill="none" stroke="black" d="M1637.67,-301.335C1651.86,-287.443 1665.42,-270.609 1673,-252 1693.3,-202.2 1703.5,-175.294 1673,-131 1656.88,-107.589 1592.5,-84.8326 1538.18,-69.1712"/>
<polygon fill="black" stroke="black" points="1538.73,-66.0529 1529.21,-66.6226 1537.01,-72.1129 1538.73,-66.0529"/>
</g>
<!-- m_QuestionsDataSet -->
<g id="node15" class="node"><title>m_QuestionsDataSet</title>
<path fill="none" stroke="black" d="M1526,-164C1526,-164 1646,-164 1646,-164 1652,-164 1658,-170 1658,-176 1658,-176 1658,-207 1658,-207 1658,-213 1652,-219 1646,-219 1646,-219 1526,-219 1526,-219 1520,-219 1514,-213 1514,-207 1514,-207 1514,-176 1514,-176 1514,-170 1520,-164 1526,-164"/>
<text text-anchor="start" x="1539.36" y="-205.7" font-family="Arial BoldMT" font-size="11.00">QuestionsDataSet</text>
<polyline fill="none" stroke="black" points="1514,-200 1658,-200 "/>
<text text-anchor="start" x="1521" y="-187" font-family="ArialMT" font-size="10.00">data_set_id </text>
<text text-anchor="start" x="1575.49" y="-187" font-family="Arial ItalicMT" font-size="10.00" fill="#999999">integer FK</text>
<text text-anchor="start" x="1521" y="-174" font-family="ArialMT" font-size="10.00">question_id </text>
<text text-anchor="start" x="1574.93" y="-174" font-family="Arial ItalicMT" font-size="10.00" fill="#999999">integer FK</text>
</g>
<!-- m_DataSet&#45;&gt;m_QuestionsDataSet -->
<g id="edge33" class="edge"><title>m_DataSet&#45;&gt;m_QuestionsDataSet</title>
<path fill="none" stroke="black" d="M1586,-301.205C1586,-278.502 1586,-250.278 1586,-228.279"/>
<polygon fill="black" stroke="black" points="1589.15,-228.266 1586,-219.266 1582.85,-228.266 1589.15,-228.266"/>
</g>
<!-- m_Education -->
<g id="node9" class="node"><title>m_Education</title>
<path fill="none" stroke="black" d="M12,-301.5C12,-301.5 132,-301.5 132,-301.5 138,-301.5 144,-307.5 144,-313.5 144,-313.5 144,-370.5 144,-370.5 144,-376.5 138,-382.5 132,-382.5 132,-382.5 12,-382.5 12,-382.5 6,-382.5 0,-376.5 0,-370.5 0,-370.5 0,-313.5 0,-313.5 0,-307.5 6,-301.5 12,-301.5"/>
<text text-anchor="start" x="45.5374" y="-369.2" font-family="Arial BoldMT" font-size="11.00">Education</text>
<polyline fill="none" stroke="black" points="0,-363.5 144,-363.5 "/>
<text text-anchor="start" x="7" y="-350.5" font-family="ArialMT" font-size="10.00">deleted_at </text>
<text text-anchor="start" x="56.4873" y="-350.5" font-family="Arial ItalicMT" font-size="10.00" fill="#999999">datetime</text>
<text text-anchor="start" x="7" y="-337.5" font-family="ArialMT" font-size="10.00">direction </text>
<text text-anchor="start" x="47.5762" y="-337.5" font-family="Arial ItalicMT" font-size="10.00" fill="#999999">text</text>
<text text-anchor="start" x="7" y="-324.5" font-family="ArialMT" font-size="10.00">organization </text>
<text text-anchor="start" x="64.2607" y="-324.5" font-family="Arial ItalicMT" font-size="10.00" fill="#999999">text ∗</text>
<text text-anchor="start" x="7" y="-311.5" font-family="ArialMT" font-size="10.00">user_id </text>
<text text-anchor="start" x="42.5762" y="-311.5" font-family="Arial ItalicMT" font-size="10.00" fill="#999999">integer FK</text>
</g>
<!-- m_Employment -->
<g id="node10" class="node"><title>m_Employment</title>
<path fill="none" stroke="black" d="M185,-301.5C185,-301.5 305,-301.5 305,-301.5 311,-301.5 317,-307.5 317,-313.5 317,-313.5 317,-370.5 317,-370.5 317,-376.5 311,-382.5 305,-382.5 305,-382.5 185,-382.5 185,-382.5 179,-382.5 173,-376.5 173,-370.5 173,-370.5 173,-313.5 173,-313.5 173,-307.5 179,-301.5 185,-301.5"/>
<text text-anchor="start" x="212.433" y="-369.2" font-family="Arial BoldMT" font-size="11.00">Employment</text>
<polyline fill="none" stroke="black" points="173,-363.5 317,-363.5 "/>
<text text-anchor="start" x="180" y="-350.5" font-family="ArialMT" font-size="10.00">deleted_at </text>
<text text-anchor="start" x="229.487" y="-350.5" font-family="Arial ItalicMT" font-size="10.00" fill="#999999">datetime</text>
<text text-anchor="start" x="180" y="-337.5" font-family="ArialMT" font-size="10.00">employment </text>
<text text-anchor="start" x="237.246" y="-337.5" font-family="Arial ItalicMT" font-size="10.00" fill="#999999">text ∗</text>
<text text-anchor="start" x="180" y="-324.5" font-family="ArialMT" font-size="10.00">position </text>
<text text-anchor="start" x="217.246" y="-324.5" font-family="Arial ItalicMT" font-size="10.00" fill="#999999">text</text>
<text text-anchor="start" x="180" y="-311.5" font-family="ArialMT" font-size="10.00">user_id </text>
<text text-anchor="start" x="215.576" y="-311.5" font-family="Arial ItalicMT" font-size="10.00" fill="#999999">integer FK</text>
</g>
<!-- m_Followment -->
<g id="node11" class="node"><title>m_Followment</title>
<path fill="none" stroke="black" d="M358,-314.5C358,-314.5 478,-314.5 478,-314.5 484,-314.5 490,-320.5 490,-326.5 490,-326.5 490,-357.5 490,-357.5 490,-363.5 484,-369.5 478,-369.5 478,-369.5 358,-369.5 358,-369.5 352,-369.5 346,-363.5 346,-357.5 346,-357.5 346,-326.5 346,-326.5 346,-320.5 352,-314.5 358,-314.5"/>
<text text-anchor="start" x="387.88" y="-356.2" font-family="Arial BoldMT" font-size="11.00">Followment</text>
<polyline fill="none" stroke="black" points="346,-350.5 490,-350.5 "/>
<text text-anchor="start" x="353" y="-337.5" font-family="ArialMT" font-size="10.00">followee_id </text>
<text text-anchor="start" x="405.812" y="-337.5" font-family="Arial ItalicMT" font-size="10.00" fill="#999999">integer FK</text>
<text text-anchor="start" x="353" y="-324.5" font-family="ArialMT" font-size="10.00">follower_id </text>
<text text-anchor="start" x="403.581" y="-324.5" font-family="Arial ItalicMT" font-size="10.00" fill="#999999">integer FK</text>
</g>
<!-- m_Location -->
<g id="node12" class="node"><title>m_Location</title>
<path fill="none" stroke="black" d="M531,-308C531,-308 651,-308 651,-308 657,-308 663,-314 663,-320 663,-320 663,-364 663,-364 663,-370 657,-376 651,-376 651,-376 531,-376 531,-376 525,-376 519,-370 519,-364 519,-364 519,-320 519,-320 519,-314 525,-308 531,-308"/>
<text text-anchor="start" x="568.206" y="-362.7" font-family="Arial BoldMT" font-size="11.00">Location</text>
<polyline fill="none" stroke="black" points="519,-357 663,-357 "/>
<text text-anchor="start" x="526" y="-343.5" font-family="ArialMT" font-size="10.00">deleted_at </text>
<text text-anchor="start" x="575.487" y="-343.5" font-family="Arial ItalicMT" font-size="10.00" fill="#999999">datetime</text>
<text text-anchor="start" x="526" y="-330.5" font-family="ArialMT" font-size="10.00">name </text>
<text text-anchor="start" x="553.793" y="-330.5" font-family="Arial ItalicMT" font-size="10.00" fill="#999999">text ∗</text>
<text text-anchor="start" x="526" y="-317.5" font-family="ArialMT" font-size="10.00">user_id </text>
<text text-anchor="start" x="561.576" y="-317.5" font-family="Arial ItalicMT" font-size="10.00" fill="#999999">integer FK</text>
</g>
<!-- m_Question -->
<g id="node13" class="node"><title>m_Question</title>
<path fill="none" stroke="black" d="M1186,-288.5C1186,-288.5 1306,-288.5 1306,-288.5 1312,-288.5 1318,-294.5 1318,-300.5 1318,-300.5 1318,-383.5 1318,-383.5 1318,-389.5 1312,-395.5 1306,-395.5 1306,-395.5 1186,-395.5 1186,-395.5 1180,-395.5 1174,-389.5 1174,-383.5 1174,-383.5 1174,-300.5 1174,-300.5 1174,-294.5 1180,-288.5 1186,-288.5"/>
<text text-anchor="start" x="1221.99" y="-382.2" font-family="Arial BoldMT" font-size="11.00">Question</text>
<polyline fill="none" stroke="black" points="1174,-376.5 1318,-376.5 "/>
<text text-anchor="start" x="1181" y="-363.5" font-family="ArialMT" font-size="10.00">content </text>
<text text-anchor="start" x="1216.58" y="-363.5" font-family="Arial ItalicMT" font-size="10.00" fill="#999999">text</text>
<text text-anchor="start" x="1181" y="-350.5" font-family="ArialMT" font-size="10.00">deleted_at </text>
<text text-anchor="start" x="1230.49" y="-350.5" font-family="Arial ItalicMT" font-size="10.00" fill="#999999">datetime</text>
<text text-anchor="start" x="1181" y="-337.5" font-family="ArialMT" font-size="10.00">edited_at </text>
<text text-anchor="start" x="1224.93" y="-337.5" font-family="Arial ItalicMT" font-size="10.00" fill="#999999">datetime</text>
<text text-anchor="start" x="1181" y="-324.5" font-family="ArialMT" font-size="10.00">hot </text>
<text text-anchor="start" x="1197.68" y="-324.5" font-family="Arial ItalicMT" font-size="10.00" fill="#999999">float</text>
<text text-anchor="start" x="1181" y="-311.5" font-family="ArialMT" font-size="10.00">title </text>
<text text-anchor="start" x="1199.34" y="-311.5" font-family="Arial ItalicMT" font-size="10.00" fill="#999999">text ∗</text>
<text text-anchor="start" x="1181" y="-298.5" font-family="ArialMT" font-size="10.00">user_id </text>
<text text-anchor="start" x="1216.58" y="-298.5" font-family="Arial ItalicMT" font-size="10.00" fill="#999999">integer FK</text>
</g>
<!-- m_Question&#45;&gt;m_Activity -->
<g id="edge37" class="edge"><title>m_Question&#45;&gt;m_Activity</title>
<path fill="none" stroke="black" d="M1270.99,-288.138C1288.97,-241.439 1304.31,-174.225 1268,-131 1261.73,-123.539 1011.16,-82.6224 878.118,-61.3541"/>
<polygon fill="black" stroke="black" points="878.522,-58.2288 869.138,-59.9198 877.528,-64.4499 878.522,-58.2288"/>
</g>
<!-- m_Question&#45;&gt;m_Answer -->
<g id="edge26" class="edge"><title>m_Question&#45;&gt;m_Answer</title>
<path fill="none" stroke="black" d="M1305.35,-288.226C1316.48,-278.331 1328.23,-267.878 1339.72,-257.659"/>
<polygon fill="black" stroke="black" points="1341.82,-260.009 1346.45,-251.675 1337.63,-255.301 1341.82,-260.009"/>
</g>
<!-- m_Question&#45;&gt;m_DataReport -->
<g id="edge25" class="edge"><title>m_Question&#45;&gt;m_DataReport</title>
<path fill="none" stroke="black" stroke-dasharray="1,5" d="M1183.27,-395.66C1171.4,-403.198 1158.58,-409.799 1145.5,-414 1076.95,-436.021 1053.91,-429.069 983.5,-414 956.401,-408.2 928.348,-397.466 903.421,-386.024"/>
<polygon fill="black" stroke="black" points="904.58,-383.088 895.093,-382.122 901.907,-388.793 904.58,-383.088"/>
</g>
<!-- m_Question&#45;&gt;m_DataSet -->
<g id="edge23" class="edge"><title>m_Question&#45;&gt;m_DataSet</title>
<path fill="none" stroke="black" stroke-dasharray="1,5" d="M1318.05,-342C1380.24,-342 1442.42,-342 1504.6,-342"/>
<polygon fill="black" stroke="black" points="1504.78,-345.15 1513.78,-342 1504.78,-338.85 1504.78,-345.15"/>
</g>
<!-- m_Question&#45;&gt;m_QuestionsDataReport -->
<g id="edge24" class="edge"><title>m_Question&#45;&gt;m_QuestionsDataReport</title>
<path fill="none" stroke="black" d="M1173.85,-293.745C1169.25,-291.614 1164.62,-289.673 1160,-288 1054.46,-249.754 1014.6,-292.744 910,-252 893.012,-245.383 876.069,-234.904 861.71,-224.572"/>
<polygon fill="black" stroke="black" points="863.559,-222.021 854.449,-219.203 859.813,-227.087 863.559,-222.021"/>
</g>
<!-- m_Question&#45;&gt;m_QuestionsDataSet -->
<g id="edge22" class="edge"><title>m_Question&#45;&gt;m_QuestionsDataSet</title>
<path fill="none" stroke="black" d="M1318.18,-321.36C1370.2,-305.866 1441.29,-281.904 1500,-252 1515.29,-244.212 1531.01,-234.067 1544.76,-224.365"/>
<polygon fill="black" stroke="black" points="1546.7,-226.845 1552.18,-219.038 1543.03,-221.727 1546.7,-226.845"/>
</g>
<!-- m_QuestionsFollowment -->
<g id="node16" class="node"><title>m_QuestionsFollowment</title>
<path fill="none" stroke="black" d="M936,-164C936,-164 1068,-164 1068,-164 1074,-164 1080,-170 1080,-176 1080,-176 1080,-207 1080,-207 1080,-213 1074,-219 1068,-219 1068,-219 936,-219 936,-219 930,-219 924,-213 924,-207 924,-207 924,-176 924,-176 924,-170 930,-164 936,-164"/>
<text text-anchor="start" x="947.116" y="-205.7" font-family="Arial BoldMT" font-size="11.00">QuestionsFollowment</text>
<polyline fill="none" stroke="black" points="924,-200 1080,-200 "/>
<text text-anchor="start" x="930.843" y="-187" font-family="ArialMT" font-size="10.00">followee_question_id </text>
<text text-anchor="start" x="1027.02" y="-187" font-family="Arial ItalicMT" font-size="10.00" fill="#999999">integer FK</text>
<text text-anchor="start" x="931" y="-174" font-family="ArialMT" font-size="10.00">follower_id </text>
<text text-anchor="start" x="981.581" y="-174" font-family="Arial ItalicMT" font-size="10.00" fill="#999999">integer FK</text>
</g>
<!-- m_Question&#45;&gt;m_QuestionsFollowment -->
<g id="edge27" class="edge"><title>m_Question&#45;&gt;m_QuestionsFollowment</title>
<path fill="none" stroke="black" d="M1173.89,-296.222C1169.2,-293.416 1164.54,-290.656 1160,-288 1131.49,-271.333 1123.37,-268.907 1095,-252 1080.27,-243.223 1064.49,-233.317 1050.18,-224.141"/>
<polygon fill="black" stroke="black" points="1051.67,-221.354 1042.39,-219.131 1048.26,-226.651 1051.67,-221.354"/>
</g>
<!-- m_QuestionsTopic -->
<g id="node17" class="node"><title>m_QuestionsTopic</title>
<path fill="none" stroke="black" d="M1121,-164C1121,-164 1241,-164 1241,-164 1247,-164 1253,-170 1253,-176 1253,-176 1253,-207 1253,-207 1253,-213 1247,-219 1241,-219 1241,-219 1121,-219 1121,-219 1115,-219 1109,-213 1109,-207 1109,-207 1109,-176 1109,-176 1109,-170 1115,-164 1121,-164"/>
<text text-anchor="start" x="1141.4" y="-205.7" font-family="Arial BoldMT" font-size="11.00">QuestionsTopic</text>
<polyline fill="none" stroke="black" points="1109,-200 1253,-200 "/>
<text text-anchor="start" x="1116" y="-187" font-family="ArialMT" font-size="10.00">question_id </text>
<text text-anchor="start" x="1169.93" y="-187" font-family="Arial ItalicMT" font-size="10.00" fill="#999999">integer FK</text>
<text text-anchor="start" x="1116" y="-174" font-family="ArialMT" font-size="10.00">topic_id </text>
<text text-anchor="start" x="1153.25" y="-174" font-family="Arial ItalicMT" font-size="10.00" fill="#999999">integer FK</text>
</g>
<!-- m_Question&#45;&gt;m_QuestionsTopic -->
<g id="edge21" class="edge"><title>m_Question&#45;&gt;m_QuestionsTopic</title>
<path fill="none" stroke="black" d="M1222.9,-288.226C1214.12,-268.166 1204.34,-245.818 1196.44,-227.764"/>
<polygon fill="black" stroke="black" points="1199.21,-226.256 1192.72,-219.274 1193.44,-228.782 1199.21,-226.256"/>
</g>
<!-- m_Topic -->
<g id="node18" class="node"><title>m_Topic</title>
<path fill="none" stroke="black" d="M995,-301.5C995,-301.5 1115,-301.5 1115,-301.5 1121,-301.5 1127,-307.5 1127,-313.5 1127,-313.5 1127,-370.5 1127,-370.5 1127,-376.5 1121,-382.5 1115,-382.5 1115,-382.5 995,-382.5 995,-382.5 989,-382.5 983,-376.5 983,-370.5 983,-370.5 983,-313.5 983,-313.5 983,-307.5 989,-301.5 995,-301.5"/>
<text text-anchor="start" x="1040.16" y="-369.2" font-family="Arial BoldMT" font-size="11.00">Topic</text>
<polyline fill="none" stroke="black" points="983,-363.5 1127,-363.5 "/>
<text text-anchor="start" x="990" y="-350.5" font-family="ArialMT" font-size="10.00">deleted_at </text>
<text text-anchor="start" x="1039.49" y="-350.5" font-family="Arial ItalicMT" font-size="10.00" fill="#999999">datetime</text>
<text text-anchor="start" x="990" y="-337.5" font-family="ArialMT" font-size="10.00">description </text>
<text text-anchor="start" x="1041.14" y="-337.5" font-family="Arial ItalicMT" font-size="10.00" fill="#999999">text</text>
<text text-anchor="start" x="990" y="-324.5" font-family="ArialMT" font-size="10.00">name </text>
<text text-anchor="start" x="1017.79" y="-324.5" font-family="Arial ItalicMT" font-size="10.00" fill="#999999">text ∗</text>
<text text-anchor="start" x="990" y="-311.5" font-family="ArialMT" font-size="10.00">origin_id </text>
<text text-anchor="start" x="1030.58" y="-311.5" font-family="Arial ItalicMT" font-size="10.00" fill="#999999">integer FK</text>
</g>
<!-- m_Topic&#45;&gt;m_Question -->
<g id="edge20" class="edge"><title>m_Topic&#45;&gt;m_Question</title>
<path fill="none" stroke="black" stroke-dasharray="1,5" d="M1127.37,-342C1139.8,-342 1152.23,-342 1164.66,-342"/>
<polygon fill="black" stroke="black" points="1164.71,-345.15 1173.71,-342 1164.71,-338.85 1164.71,-345.15"/>
</g>
<!-- m_Topic&#45;&gt;m_QuestionsTopic -->
<g id="edge19" class="edge"><title>m_Topic&#45;&gt;m_QuestionsTopic</title>
<path fill="none" stroke="black" d="M1088.77,-301.205C1108.63,-277.793 1133.48,-248.508 1152.38,-226.235"/>
<polygon fill="black" stroke="black" points="1154.87,-228.167 1158.29,-219.266 1150.06,-224.091 1154.87,-228.167"/>
</g>
<!-- m_Topic&#45;&gt;m_Topic -->
<g id="edge18" class="edge"><title>m_Topic&#45;&gt;m_Topic</title>
<path fill="none" stroke="black" d="M1127.18,-369.505C1143.79,-367.135 1156,-357.967 1156,-342 1156,-329.027 1147.94,-320.542 1136.01,-316.545"/>
<polygon fill="black" stroke="black" points="1136.65,-313.462 1127.18,-314.495 1135.23,-319.599 1136.65,-313.462"/>
</g>
<!-- m_User&#45;&gt;m_Activity -->
<g id="edge17" class="edge"><title>m_User&#45;&gt;m_Activity</title>
<path fill="none" stroke="black" d="M758.271,-432.305C750.165,-420.73 742.726,-408.447 737,-396 709.753,-336.768 715.251,-316.898 709,-252 703.844,-198.47 687.622,-180.346 709,-131 713.644,-120.281 720.442,-110.316 728.235,-101.286"/>
<polygon fill="black" stroke="black" points="730.628,-103.337 734.369,-94.5659 725.975,-99.0895 730.628,-103.337"/>
</g>
<!-- m_User&#45;&gt;m_Answer -->
<g id="edge12" class="edge"><title>m_User&#45;&gt;m_Answer</title>
<path fill="none" stroke="black" d="M895.115,-497.564C1019.55,-484.259 1267.56,-451.447 1333,-396 1373.05,-362.065 1393.18,-305.415 1403.22,-260.49"/>
<polygon fill="black" stroke="black" points="1406.3,-261.131 1405.09,-251.672 1400.14,-259.819 1406.3,-261.131"/>
</g>
<!-- m_User&#45;&gt;m_Comment -->
<g id="edge13" class="edge"><title>m_User&#45;&gt;m_Comment</title>
<path fill="none" stroke="black" d="M895.082,-500.029C1089.87,-487.296 1615.99,-448.357 1673,-396 1753.16,-322.383 1742.74,-181.853 1729.22,-103.952"/>
<polygon fill="black" stroke="black" points="1732.26,-103.068 1727.56,-94.7715 1726.06,-104.188 1732.26,-103.068"/>
</g>
<!-- m_User&#45;&gt;m_DataReport -->
<g id="edge10" class="edge"><title>m_User&#45;&gt;m_DataReport</title>
<path fill="none" stroke="black" d="M823,-432.253C823,-418.601 823,-404.622 823,-391.899"/>
<polygon fill="black" stroke="black" points="826.15,-391.879 823,-382.879 819.85,-391.879 826.15,-391.879"/>
</g>
<!-- m_User&#45;&gt;m_DataSet -->
<g id="edge9" class="edge"><title>m_User&#45;&gt;m_DataSet</title>
<path fill="none" stroke="black" d="M895.377,-493.744C1006.73,-476.608 1226.43,-440.463 1410,-396 1441.33,-388.411 1475.35,-378.557 1505.04,-369.409"/>
<polygon fill="black" stroke="black" points="1506.04,-372.397 1513.7,-366.723 1504.18,-366.38 1506.04,-372.397"/>
</g>
<!-- m_User&#45;&gt;m_Education -->
<g id="edge4" class="edge"><title>m_User&#45;&gt;m_Education</title>
<path fill="none" stroke="black" d="M750.781,-501.869C626.104,-495.345 364.051,-472.858 158,-396 151.299,-393.5 144.55,-390.452 137.939,-387.094"/>
<polygon fill="black" stroke="black" points="139.079,-384.132 129.653,-382.691 136.123,-389.696 139.079,-384.132"/>
</g>
<!-- m_User&#45;&gt;m_Employment -->
<g id="edge3" class="edge"><title>m_User&#45;&gt;m_Employment</title>
<path fill="none" stroke="black" d="M750.694,-496.26C652.731,-483.389 473.695,-453.77 331,-396 324.599,-393.409 318.133,-390.36 311.772,-387.058"/>
<polygon fill="black" stroke="black" points="313.203,-384.25 303.785,-382.753 310.213,-389.796 313.203,-384.25"/>
</g>
<!-- m_User&#45;&gt;m_Followment -->
<g id="edge5" class="edge"><title>m_User&#45;&gt;m_Followment</title>
<path fill="none" stroke="black" d="M750.886,-485.014C685.029,-466.05 585.768,-434.502 504,-396 490.984,-389.871 477.479,-382.228 465.135,-374.671"/>
<polygon fill="black" stroke="black" points="466.513,-371.818 457.208,-369.733 463.182,-377.165 466.513,-371.818"/>
</g>
<!-- m_User&#45;&gt;m_Location -->
<g id="edge2" class="edge"><title>m_User&#45;&gt;m_Location</title>
<path fill="none" stroke="black" d="M750.865,-454.286C717.144,-430.811 677.622,-403.3 646.312,-381.504"/>
<polygon fill="black" stroke="black" points="647.723,-378.648 638.537,-376.091 644.124,-383.819 647.723,-378.648"/>
</g>
<!-- m_User&#45;&gt;m_Question -->
<g id="edge11" class="edge"><title>m_User&#45;&gt;m_Question</title>
<path fill="none" stroke="black" d="M895.233,-486.67C964.786,-468.252 1072.08,-436.522 1160,-396 1161.88,-395.135 1163.76,-394.238 1165.65,-393.312"/>
<polygon fill="black" stroke="black" points="1167.36,-395.978 1173.96,-389.092 1164.51,-390.362 1167.36,-395.978"/>
</g>
<!-- m_User&#45;&gt;m_QuestionsFollowment -->
<g id="edge15" class="edge"><title>m_User&#45;&gt;m_QuestionsFollowment</title>
<path fill="none" stroke="black" d="M885.034,-432.205C893.915,-420.452 902.551,-408.143 910,-396 944.258,-340.152 973.375,-269.366 989.211,-227.696"/>
<polygon fill="black" stroke="black" points="992.164,-228.795 992.386,-219.262 986.267,-226.575 992.164,-228.795"/>
</g>
<!-- m_User&#45;&gt;m_User -->
<g id="edge6" class="edge"><title>m_User&#45;&gt;m_User</title>
<path fill="none" stroke="black" stroke-dasharray="1,5" d="M895.176,-518.703C911.793,-517.565 924,-513.164 924,-505.5 924,-499.333 916.096,-495.279 904.35,-493.337"/>
<polygon fill="black" stroke="black" points="904.473,-490.181 895.176,-492.297 903.764,-496.441 904.473,-490.181"/>
</g>
<!-- m_User&#45;&gt;m_User -->
<g id="edge8" class="edge"><title>m_User&#45;&gt;m_User</title>
<path fill="none" stroke="black" stroke-dasharray="1,5" d="M895.19,-532.177C926.335,-534.361 953,-525.469 953,-505.5 953,-487.559 931.476,-478.559 904.518,-478.5"/>
<polygon fill="black" stroke="black" points="904.076,-475.364 895.19,-478.823 904.294,-481.66 904.076,-475.364"/>
</g>
</g>
</svg>
